<svg version="1.1" xmlns="http://www.w3.org/2000/svg" xmlns:xlink="http://www.w3.org/1999/xlink" width="963.5" height="582.5" viewBox="0,0,963.5,582.5"><g transform="translate(133.25,90.75)"><g data-paper-data="{&quot;isPaintingLayer&quot;:true}" fill-rule="nonzero" stroke-linejoin="miter" stroke-miterlimit="10" stroke-dasharray="" stroke-dashoffset="0" style="mix-blend-mode: normal"><path d="M-131.5,490v-579h960v579z" fill="#7f7f7f" stroke="#000000" stroke-width="3.5" stroke-linecap="butt"/><path d="M-16.5,418.5v-129h550v129z" fill="#c1c1c1" stroke="none" stroke-width="0" stroke-linecap="butt"/><path d="M-16.5,394.5v-407h530v407z" fill="#c1c1c1" stroke="none" stroke-width="0" stroke-linecap="butt"/><path d="M13.9787,-3.82056l51.33479,-17.18561l18.47453,55.1849l-51.33479,17.18561z" fill="none" stroke="none" stroke-width="0" stroke-linecap="butt"/><path d="M145.99427,-10.47088l53.39175,8.94019l-9.61069,57.39613l-53.39175,-8.94018z" fill="none" stroke="none" stroke-width="0" stroke-linecap="butt"/><path d="M263.11051,-1.68783l53.96699,-4.26268l4.58238,58.01451l-53.96699,4.26268z" fill="none" stroke="none" stroke-width="0" stroke-linecap="butt"/><path d="M455.8107,49.38709l-47.54131,-25.89266l27.83461,-51.1069l47.54131,25.89266z" fill="none" stroke="none" stroke-width="0" stroke-linecap="butt"/><path d="M35.5,-13v406" fill="none" stroke="#464646" stroke-width="3" stroke-linecap="round"/><path d="M118.5,-8v422" fill="none" stroke="#464646" stroke-width="3" stroke-linecap="round"/><path d="M212.5,-11v423" fill="none" stroke="#464646" stroke-width="3" stroke-linecap="round"/><path d="M310,-10.5v473" fill="none" stroke="#464646" stroke-width="3" stroke-linecap="round"/><path d="M405.5,-17v431" fill="none" stroke="#464646" stroke-width="3" stroke-linecap="round"/><path d="M-77,180h634" fill="none" stroke="#464646" stroke-width="3" stroke-linecap="round"/></g></g></svg>