<svg version="1.1" xmlns="http://www.w3.org/2000/svg" xmlns:xlink="http://www.w3.org/1999/xlink" width="688.93049" height="466.93816" viewBox="0,0,688.93049,466.93816"><g transform="translate(120.03665,83.76495)"><g data-paper-data="{&quot;isPaintingLayer&quot;:true}" fill-rule="nonzero" stroke-linejoin="miter" stroke-miterlimit="10" stroke-dasharray="" stroke-dashoffset="0" style="mix-blend-mode: normal"><path d="M-87.76109,381.03389v-463.79884h655.65492v463.79884z" fill="#66b1ff" stroke="#000000" stroke-width="2" stroke-linecap="butt"/><path d="M-17.06225,297.42482v-133.40564c0,0 4.01829,10.23732 16.3166,21.34637c6.3073,5.69738 13.88631,16.15476 26.1027,16.15476c7.68017,0 33.08597,-27.31578 41.06188,-29.77303c31.55982,-9.72308 51.53067,-8.68642 126.62548,-15.48376c9.30689,-0.84243 25.16037,24.33009 35.13372,23.85007c6.31647,-0.30401 41.02798,-27.75812 47.54116,-28.2498c2.80688,-0.21189 6.24362,5.09291 9.07792,4.8495c6.80388,-0.58432 39.80198,0.64791 50.31189,13.42147c9.30782,11.31257 14.03272,4.20525 19.71214,4.00852c10.91689,-0.37815 45.8422,-17.28478 55.56746,-18.60845c67.41259,-9.17525 63.13756,8.48437 63.13756,8.48437v133.40564z" fill="#c7ff73" stroke="none" stroke-width="0" stroke-linecap="butt"/><g stroke="#000000" stroke-width="6"><path d="M189.41303,164.56138c6.69383,19.36681 -4.61937,40.8525 -25.26875,47.98963c-20.64938,7.13713 -42.81543,-2.77698 -49.50926,-22.14379c-6.69383,-19.36681 4.61937,-40.8525 25.26875,-47.98963c20.64938,-7.13713 42.81543,2.77698 49.50926,22.14379z" fill="#66ebff" stroke-linecap="butt"/><path d="M129.10267,170.58826l-14.12692,-40.87245c0,0 60.90689,-39.04522 86.9639,-52.02291c20.1886,-10.05491 56.3142,-19.33662 56.3142,-19.33662l26.00637,75.24248c0,0 -33.49825,17.03513 -55.37641,22.25087c-28.2128,6.72592 -99.78115,14.73863 -99.78115,14.73863z" fill="#737373" stroke-linecap="butt"/><path d="M212.08839,85.75144l21.02985,60.84422" fill="none" stroke-linecap="round"/><path d="M257.09958,101.65074c3.23609,9.36276 3.36411,17.81526 0.28594,18.87918c-3.07817,1.06392 -8.19689,-5.66362 -11.43298,-15.02638c-3.23609,-9.36276 -3.36411,-17.81526 -0.28594,-18.87918c3.07817,-1.06392 8.19688,5.66362 11.43298,15.02638z" fill="#000000" stroke-linecap="butt"/></g><path d="M149.93902,161.38899c0,32.83986 -27.39203,59.46184 -61.18181,59.46184c-33.78978,0 -61.18181,-26.62197 -61.18181,-59.46184c0,-32.83986 27.39203,-59.46184 61.18181,-59.46184c33.78978,0 61.18181,26.62197 61.18181,59.46184z" fill="#66ebff" stroke="#000000" stroke-width="6" stroke-linecap="butt"/><path d="M-18.29179,327.54868v-74.38748h548.75543v74.38748z" fill="#393939" stroke="#000000" stroke-width="11.5" stroke-linecap="butt"/><path d="M90.47719,216.67375c0,20.49099 -18.04134,37.10222 -40.29645,37.10222c-22.25512,0 -40.29645,-16.61122 -40.29645,-37.10222c0,-20.49099 18.04134,-37.10222 40.29645,-37.10222c22.25512,0 40.29645,16.61123 40.29645,37.10222z" fill="#66ebff" stroke="#000000" stroke-width="6" stroke-linecap="butt"/><path d="M-15.83271,340.4589v-67.62498h468.45667v67.62498z" fill="#838383" stroke="#000000" stroke-width="11.5" stroke-linecap="butt"/><path d="M99.81417,159.42332c0,10.58475 -3.85028,19.16538 -8.59985,19.16538c-4.74957,0 -8.59985,-8.58063 -8.59985,-19.16538c0,-10.58475 3.85028,-19.16539 8.59985,-19.16539c4.74957,0 8.59985,8.58063 8.59985,19.16539z" fill="#000000" stroke="#000000" stroke-width="6" stroke-linecap="butt"/><path d="M126.84228,157.94905c0,9.77054 -3.08023,17.69112 -6.87988,17.69112c-3.79965,0 -6.87988,-7.92059 -6.87988,-17.69112c0,-9.77054 3.08023,-17.69112 6.87988,-17.69112c3.79965,0 6.87988,7.92059 6.87988,17.69112z" fill="#000000" stroke="#000000" stroke-width="6" stroke-linecap="butt"/><path d="M77.91455,130.30824l25.37369,-19.3689l28.25395,33.69926l-25.37369,19.3689z" fill="#66ebff" stroke="none" stroke-width="0" stroke-linecap="butt"/><path d="M-99.44177,369.96799v-74.38748h548.75543v74.38748z" fill="#393939" stroke="#000000" stroke-width="11.5" stroke-linecap="butt"/><path d="M445.86147,70.88115c0,14.59832 -5.6466,19.85131 -25.11968,23.61034c-1.93482,0.37349 -10.70187,3.16705 -12.77091,3.46537c-1.68169,0.24247 -2.17645,-4.45713 -3.94054,-4.26086c-9.53119,1.06034 -21.45346,6.38686 -32.86373,6.38686c-9.88417,0 -20.87389,4.59067 -30.59714,0.71747c-12.65631,-5.04155 -25.43799,-5.7764 -33.36634,-10.7508c-12.02987,-7.54776 -14.42001,-8.27083 -14.42001,-19.16837c0,-12.43527 24.27091,-12.56387 39.46004,-20.37196c13.63392,-7.00863 17.08386,-22.35472 37.07915,-22.35472c7.08414,0 13.22503,0.24987 18.79029,0.87709c10.71424,1.20754 19.2949,3.8137 28.36505,8.72812c6.29383,3.41015 5.34963,11.5818 10.5857,16.55654c6.6864,6.35269 18.79815,9.81862 18.79815,16.56493z" fill="#e8e8e8" stroke="#000000" stroke-width="3" stroke-linecap="butt"/><path d="M-120.03665,146.80555c0,-1.18835 0.96335,-2.1517 2.1517,-2.1517c1.18835,0 2.1517,0.96335 2.1517,2.1517c0,1.18835 -0.96335,2.1517 -2.1517,2.1517c-1.18835,0 -2.1517,-0.96335 -2.1517,-2.1517z" fill="#000000" stroke="none" stroke-width="0.5" stroke-linecap="butt"/><path d="M352.47563,64.3561c0.06993,1.28913 -1.21919,1.35906 -1.21919,1.35906l-1.11857,0.03368c-1.93343,0.9906 -5.13815,1.468 -6.77748,2.77928c-3.03379,2.42668 -4.34743,5.36452 -5.60667,8.86104c0.56168,1.35817 0.85476,2.83722 1.57543,4.11815c0.56759,1.00886 1.91811,1.29771 2.90415,1.90409c2.19941,1.3526 4.39742,2.7075 6.5956,4.0621c1.3809,0.85096 2.45622,2.26598 3.99541,2.77776c0.73767,0.24528 1.56714,-0.17489 2.33188,-0.03529c0.60175,0.10985 1.07639,0.60922 1.6678,0.76543c5.54734,1.46522 12.37263,0.84236 16.79245,5.11469c0,0 0.91289,0.91289 0,1.82578c-0.91289,0.91289 -1.82578,0 -1.82578,0c-1.53041,-1.6055 -3.54004,-1.85426 -5.62399,-2.55069c-3.33444,-1.11433 -6.71358,-1.04082 -10.07034,-1.91239c-0.53784,-0.13965 -0.95586,-0.6214 -1.50222,-0.7227c-0.84774,-0.15717 -1.77265,0.24991 -2.5863,-0.03529c-0.92231,-0.32328 -1.57133,-1.16387 -2.38395,-1.70684c-2.83879,-1.8968 -5.83836,-3.59162 -8.74458,-5.38402c-0.56958,-0.35129 -3.12691,-1.76079 -3.65585,-2.60837c-0.36201,-0.58007 -1.84504,-4.96037 -2.05104,-5.55243c1.28705,-4.33871 2.88635,-8.10516 6.62661,-10.97746c2.01044,-1.5439 5.36884,-2.08909 7.67779,-3.21881l1.6398,-0.11596c0,0 1.28913,-0.06993 1.35906,1.21919z" fill="#e8e8e8" stroke="none" stroke-width="0.5" stroke-linecap="butt"/><path d="M371.51791,62.98425c0.21224,1.27346 -1.06121,1.4857 -1.06121,1.4857l-1.14172,0.19029c-0.59136,-0.00483 -1.20273,-0.16712 -1.77408,-0.01449c-0.62054,0.16577 0.9335,0.88772 1.45223,1.26648c0.63555,0.46407 1.15841,1.09339 1.85369,1.46201c1.96971,1.04426 4.58001,1.46769 6.6883,2.25323c2.82409,-1.40559 5.88563,-1.86821 8.92992,-2.65957c0.67663,-0.17589 1.48139,-0.06457 2.04075,-0.48394c1.34111,-1.00547 2.19185,-4.32663 2.57637,-5.85501c0.55775,-2.21689 1.59563,-4.63706 1.26716,-6.97219c-0.0876,-0.62276 -1.74726,-2.37604 -1.77096,-2.40472c-3.98437,-4.82298 -10.2193,-3.35985 -15.95029,-3.36587c-6.03185,0.76064 -11.69575,2.55344 -17.11134,5.34091c-0.35084,0.18058 -3.81041,1.91194 -4.20637,2.2937c-1.16829,1.12637 -1.75327,2.73145 -2.64365,4.08822c-3.7539,5.72025 -6.46179,13.11272 -6.05264,20.05889c0.06227,1.32223 -0.09894,3.05848 0.80889,4.22785c2.07825,2.67699 7.55929,3.72212 10.5617,4.8501c6.23177,2.34123 11.75828,6.42698 18.24976,8.23735c1.98777,0.55436 4.52637,0.3979 6.57804,0.58441c0,0 1.28572,0.11688 1.16884,1.4026c-0.11688,1.28572 -1.4026,1.16884 -1.4026,1.16884c-2.18928,-0.19902 -4.81998,-0.06564 -6.94695,-0.64513c-5.8134,-1.58387 -10.82033,-4.99246 -16.21984,-7.45863c-4.01343,-1.8331 -8.29632,-2.65631 -12.00103,-5.13349c-0.66858,-0.44705 -1.50557,-0.72529 -1.98584,-1.37042c-1.46738,-1.97109 -1.25352,-3.48054 -1.3892,-5.72338c-0.37891,-7.52542 2.3964,-15.40321 6.47208,-21.6155c0.1881,-0.28671 2.87812,-4.40409 3.01381,-4.53388c0.72868,-0.697 3.8675,-2.24015 4.81305,-2.72715c5.73792,-2.9553 11.7393,-4.82974 18.13286,-5.62233c4.94802,-0.00486 12.1858,-1.41939 16.25109,2.1208c1.25662,1.0943 3.83079,3.8389 4.14356,5.63362c0.48981,2.81059 -0.59324,5.53534 -1.27769,8.20164c-0.53715,2.09247 -1.66488,5.86398 -3.48559,7.25069c-0.8142,0.62012 -1.94606,0.63499 -2.92464,0.93474c-3.21616,0.98517 -6.37923,1.44342 -9.49643,2.75496c-3.6578,-1.07764 -7.26571,-1.82403 -10.26734,-4.25308c-1.3158,-1.06481 -3.92437,-2.52355 -1.83985,-4.97569c0.74056,-0.87116 2.21317,-0.57564 3.31974,-0.86346l1.14172,-0.19029c0,0 1.27346,-0.21224 1.4857,1.06121z" fill="#000000" stroke="none" stroke-width="0.5" stroke-linecap="butt"/><path d="M484.03802,36.42949c9.24895,31.74332 -18.38518,17.48197 -87.73433,37.68801c-0.19308,0.05625 -8.43547,16.31381 -9.14717,15.37385c-4.22342,-5.57795 -29.37399,13.84872 -30.4311,14.16091c-46.84911,13.83555 -6.174,37.54454 -30.55803,22.77301c-8.2747,-5.0127 -90.9667,-8.93573 -93.26485,-16.82321c-1.23248,-4.23001 19.22077,-27.57915 19.95871,-32.10106c0.93849,-5.75089 27.9994,-21.71069 30.5296,-26.48834c8.66258,-16.35713 10.91171,1.65144 42.31932,-2.12696c6.33588,-0.76222 49.2089,-30.12052 57.32613,-32.48561c69.34916,-20.20605 91.75279,-11.71392 101.00175,20.0294z" fill="#ff4700" stroke="#ffea00" stroke-width="3.5" stroke-linecap="butt"/><text transform="translate(250.31089,119.16755) rotate(-16.95418) scale(0.98104,1.28823) skewX(0.0001)" font-size="40" xml:space="preserve" fill="#ff9100" fill-rule="nonzero" stroke="#ff0000" stroke-width="2" stroke-linecap="butt" stroke-linejoin="miter" stroke-miterlimit="10" stroke-dasharray="" stroke-dashoffset="0" font-family="Marker" font-weight="normal" text-anchor="start" style="mix-blend-mode: normal"><tspan x="0" dy="0">Disparatil</tspan></text><path d="M311.13406,292.81403c0,-48.24714 39.11204,-87.35918 87.35918,-87.35918c48.24714,0 87.35918,39.11204 87.35918,87.35918c0,48.24714 -39.11204,87.35918 -87.35918,87.35918c-48.24714,0 -87.35918,-39.11204 -87.35918,-87.35918z" fill="#ff6666" stroke="#000000" stroke-width="6" stroke-linecap="butt"/><path d="M305.96997,285.49824l59.38703,24.95977l-13.34056,18.07431" fill="none" stroke="#000000" stroke-width="6" stroke-linecap="round"/><path d="M326.41116,283.77688c-4.67299,0 -14.00293,-10.0956 -14.15471,-21.07842c-0.12227,-8.84719 8.43084,-16.57167 9.30083,-18.73167c2.79024,-6.92768 -0.11259,-17.85558 4.85389,-17.85558c4.45272,0 1.14472,12.20209 3.93707,17.93842c0.94059,1.93225 11.40621,11.17398 11.02217,19.9365c-0.48629,11.09573 -10.24492,19.79074 -14.95924,19.79074z" fill="#66c4ff" stroke="#000000" stroke-width="6" stroke-linecap="butt"/></g></g></svg>