<svg version="1.1" xmlns="http://www.w3.org/2000/svg" xmlns:xlink="http://www.w3.org/1999/xlink" width="68.5711" height="54.13507" viewBox="0,0,68.5711,54.13507"><g transform="translate(-219.92468,-139.59405)"><g data-paper-data="{&quot;isPaintingLayer&quot;:true}" fill-rule="nonzero" stroke-linecap="butt" stroke-linejoin="miter" stroke-miterlimit="10" stroke-dasharray="" stroke-dashoffset="0" style="mix-blend-mode: normal"><path d="M219.92468,193.72913v-54.13507h58.1952v54.13507z" fill="none" stroke="none" stroke-width="0"/><path d="M249.75205,193.59647v-25.7407h38.74373v25.7407z" fill="none" stroke="none" stroke-width="0"/><path d="M257.58782,179.29705c0,2.94834 -2.46253,5.33845 -5.50022,5.33845c-3.03769,0 -5.50022,-2.3901 -5.50022,-5.33845c0,-2.94834 2.46253,-5.33845 5.50022,-5.33845c3.03769,0 5.50022,2.3901 5.50022,5.33845z" fill="#66ddff" stroke="#000000" stroke-width="3.5"/><path d="M252.28206,181.34603v-6.18106l8.01801,-6.73281c0,0 7.7305,-0.38927 8.89712,-0.38927c0.85926,0 0.31358,16.69983 0.12304,16.69983c-1.21274,0 -9.99851,0.38643 -9.99851,0.38643z" fill="#949494" stroke="#000000" stroke-width="3.5"/><path d="M265.59598,176.98097c0,1.78517 -0.7849,3.23233 -1.75313,3.23233c-0.96823,0 -1.75313,-1.44716 -1.75313,-3.23233c0,-1.78517 0.7849,-3.23233 1.75313,-3.23233c0.96823,0 1.75313,1.44716 1.75313,3.23233z" fill="#000000" stroke="#000000" stroke-width="3.5"/></g></g></svg>