<svg version="1.1" xmlns="http://www.w3.org/2000/svg" xmlns:xlink="http://www.w3.org/1999/xlink" width="58.1952" height="54.13507" viewBox="0,0,58.1952,54.13507"><g transform="translate(-214.75001,-148.08581)"><g data-paper-data="{&quot;isPaintingLayer&quot;:true}" fill-rule="nonzero" stroke-linecap="butt" stroke-linejoin="miter" stroke-miterlimit="10" stroke-dasharray="" stroke-dashoffset="0" style="mix-blend-mode: normal"><path d="M246.38353,167.37174c0,3.36352 -2.8093,6.0902 -6.27475,6.0902c-3.46545,0 -6.27475,-2.72667 -6.27475,-6.0902c0,-3.36352 2.8093,-6.0902 6.27475,-6.0902c3.46545,0 6.27475,2.72667 6.27475,6.0902z" fill="#ff6666" stroke="#000000" stroke-width="3.5"/><path d="M246.64141,193.03209c0,3.36352 -2.8093,6.0902 -6.27475,6.0902c-3.46545,0 -6.27475,-2.72667 -6.27475,-6.0902c0,-3.36352 2.8093,-6.0902 6.27475,-6.0902c3.46545,0 6.27475,2.72667 6.27475,6.0902z" fill="#ff6666" stroke="#000000" stroke-width="3.5"/><path d="M227.88708,180c0,-6.68979 5.42315,-12.11294 12.11294,-12.11294c6.68979,0 12.11294,5.42315 12.11294,12.11294c0,6.68979 -5.42315,12.11294 -12.11294,12.11294c-6.68979,0 -12.11294,-5.42315 -12.11294,-12.11294z" fill="#ff6666" stroke="#000000" stroke-width="3.5"/><path d="M214.75002,202.22088v-54.13507h58.1952v54.13507z" fill="none" stroke="none" stroke-width="0"/></g></g></svg>