<svg version="1.1" xmlns="http://www.w3.org/2000/svg" xmlns:xlink="http://www.w3.org/1999/xlink" width="68.05454" height="54.13507" viewBox="0,0,68.05454,54.13507"><g transform="translate(-214.75005,-148.08581)"><g data-paper-data="{&quot;isPaintingLayer&quot;:true}" fill-rule="nonzero" stroke-linejoin="miter" stroke-miterlimit="10" stroke-dasharray="" stroke-dashoffset="0" style="mix-blend-mode: normal"><path d="M272.36963,183.07612l-0.39805,-9.28788l0.92879,-0.13268c0,0 8.62446,-1.24012 8.62446,0.13268c0,0.67661 -6.6342,0.57892 -6.6342,1.85758c0,1.26518 5.53988,2.55686 6.41222,4.10555c0.33988,0.60341 -5.66774,-0.11329 -5.52214,0.48304c0.25074,1.02697 4.9202,1.78875 5.86664,2.85075c0.51795,0.5812 -5.79896,-0.81882 -5.79067,-0.28113c0.01842,1.19455 5.66814,4.11992 5.66814,4.11992z" fill="#fff766" stroke="none" stroke-width="0" stroke-linecap="butt"/><path d="M237.61968,168.7411c0,3.36352 -2.8093,6.0902 -6.27475,6.0902c-3.46545,0 -6.27475,-2.72667 -6.27475,-6.0902c0,-3.36352 2.8093,-6.0902 6.27475,-6.0902c3.46545,0 6.27475,2.72667 6.27475,6.0902z" fill="#f566ff" stroke="#000000" stroke-width="3.5" stroke-linecap="butt"/><path d="M262.24933,179.85154c0,3.36352 -2.8093,6.0902 -6.27475,6.0902c-3.46545,0 -6.27475,-2.72667 -6.27475,-6.0902c0,-3.36352 2.8093,-6.0902 6.27475,-6.0902c3.46545,0 6.27475,2.72667 6.27475,6.0902z" fill="#f566ff" stroke="#000000" stroke-width="3.5" stroke-linecap="butt"/><path d="M256.57142,182.18904v-7.05146c0,0 13.14947,0 15.92208,0c0.98026,0 1.99026,1.75909 1.99026,2.78636c0,1.27095 -0.85796,4.2651 -1.72489,4.2651c-2.65579,0 -16.18745,0 -16.18745,0z" fill="#949494" stroke="#000000" stroke-width="3.5" stroke-linecap="butt"/><path d="M227.88713,180.00001c0,-6.68979 5.42315,-12.11294 12.11294,-12.11294c6.68979,0 12.11294,5.42315 12.11294,12.11294c0,6.68979 -5.42315,12.11294 -12.11294,12.11294c-6.68979,0 -12.11294,-5.42315 -12.11294,-12.11294z" fill="#f566ff" stroke="#000000" stroke-width="3.5" stroke-linecap="butt"/><path d="M214.75005,202.22088v-54.13507h68.05454v54.13507z" fill="none" stroke="none" stroke-width="0" stroke-linecap="butt"/><path d="M233.3833,195.86752v-5.21739h13.47826v5.21739z" fill="#000000" stroke="none" stroke-width="0" stroke-linecap="butt"/><path d="M233.3833,169.56318v-5.21739h13.47826v5.21739z" fill="#000000" stroke="none" stroke-width="0" stroke-linecap="butt"/><path d="M239.79635,168.69361c0,0 -0.86957,7.54534 -0.86957,11.30435c0,3.7409 0.86957,11.19565 0.86957,11.19565" fill="none" stroke="#000000" stroke-width="3.5" stroke-linecap="round"/></g></g></svg>