<svg version="1.1" xmlns="http://www.w3.org/2000/svg" xmlns:xlink="http://www.w3.org/1999/xlink" width="62.01365" height="61.63136" viewBox="0,0,62.01365,61.63136"><g transform="translate(-210.93155,-148.08581)"><g data-paper-data="{&quot;isPaintingLayer&quot;:true}" fill-rule="nonzero" stroke-linejoin="miter" stroke-miterlimit="10" stroke-dasharray="" stroke-dashoffset="0" style="mix-blend-mode: normal"><path d="M246.38351,167.37174c0,3.36352 -2.8093,6.0902 -6.27475,6.0902c-3.46545,0 -6.27475,-2.72667 -6.27475,-6.0902c0,-3.36352 2.8093,-6.0902 6.27475,-6.0902c3.46545,0 6.27475,2.72667 6.27475,6.0902z" fill="#ff6666" stroke="#000000" stroke-width="3.5" stroke-linecap="butt"/><path d="M246.64139,193.03209c0,3.36352 -2.8093,6.0902 -6.27475,6.0902c-3.46545,0 -6.27475,-2.72667 -6.27475,-6.0902c0,-3.36352 2.8093,-6.0902 6.27475,-6.0902c3.46545,0 6.27475,2.72667 6.27475,6.0902z" fill="#ff6666" stroke="#000000" stroke-width="3.5" stroke-linecap="butt"/><path d="M214.75,202.22088v-54.13507h58.1952v54.13507z" fill="none" stroke="none" stroke-width="0" stroke-linecap="butt"/><path d="M220.61039,181.58577h-7.92884" fill="none" stroke="#000000" stroke-width="3.5" stroke-linecap="round"/><path d="M224.21441,170.34123l-7.56844,-7.56844" fill="none" stroke="#000000" stroke-width="3.5" stroke-linecap="round"/><path d="M240.21624,154.05108v-4.18066" fill="none" stroke="#000000" stroke-width="3.5" stroke-linecap="round"/><path d="M250.88413,166.88138l4.46898,-4.46898" fill="none" stroke="#000000" stroke-width="3.5" stroke-linecap="round"/><path d="M258.23633,182.01825h7.06387" fill="none" stroke="#000000" stroke-width="3.5" stroke-linecap="round"/><path d="M226.66514,198.30841l-3.74818,3.74818" fill="none" stroke="#000000" stroke-width="3.5" stroke-linecap="round"/><path d="M240.07208,203.06571v4.90146" fill="none" stroke="#000000" stroke-width="3.5" stroke-linecap="round"/><path d="M251.89326,202.63323l3.60402,3.60402" fill="none" stroke="#000000" stroke-width="3.5" stroke-linecap="round"/><path d="M227.88708,180c0,-6.68979 5.42315,-12.11293 12.11294,-12.11293c6.68979,0 12.11294,5.42315 12.11294,12.11293c0,6.68979 -5.42315,12.11293 -12.11294,12.11293c-6.68979,0 -12.11294,-5.42315 -12.11294,-12.11293z" fill="#ff6666" stroke="#000000" stroke-width="3.5" stroke-linecap="butt"/></g></g></svg>