<svg version="1.1" xmlns="http://www.w3.org/2000/svg" xmlns:xlink="http://www.w3.org/1999/xlink" width="495" height="386.16667" viewBox="0,0,495,386.16667"><g transform="translate(7.5,4.5)"><g data-paper-data="{&quot;isPaintingLayer&quot;:true}" fill-rule="nonzero" stroke-linecap="butt" stroke-linejoin="miter" stroke-miterlimit="10" stroke-dasharray="" stroke-dashoffset="0" style="mix-blend-mode: normal"><path d="M-6.5,363.5v-367h493v367z" fill="#aee9ff" stroke="#000000" stroke-width="2"/><path d="M-2.88151,381.66667v-127.77778h488.33333v127.77778z" fill="#c1c1c1" stroke="none" stroke-width="0"/><path d="M198.6247,195.17455c2.19577,15.54153 -9.70779,30.07369 -26.58731,32.45849c-16.87954,2.38481 -32.34312,-8.28082 -34.53889,-23.82235c-2.19577,-15.54152 9.70779,-30.07368 26.58731,-32.45848c16.87954,-2.38481 32.34312,8.28082 34.53889,23.82234z" fill="#66ebff" stroke="#000000" stroke-width="6"/><path d="M183.32959,205.82503c4.41332,31.23727 -18.06426,60.24128 -50.20509,64.78226c-32.14083,4.54098 -61.77382,-17.10064 -66.18715,-48.33792c-4.41332,-31.23727 18.06426,-60.24128 50.20509,-64.78226c32.14083,-4.54098 61.77382,17.10064 66.18715,48.33792z" fill="#66ebff" stroke="#000000" stroke-width="6"/><path d="M78.70701,224.40958c2.19577,15.54153 -9.70779,30.07369 -26.58731,32.45849c-16.87954,2.38481 -32.34312,-8.28082 -34.53889,-23.82235c-2.19577,-15.54153 9.70779,-30.07369 26.58731,-32.45849c16.87954,-2.38481 32.34312,8.28082 34.53889,23.82235z" fill="#66ebff" stroke="#000000" stroke-width="6"/><path d="M143.38417,209.5616c1.42248,10.06821 -2.87707,19.00048 -9.60331,19.95079c-6.72624,0.95031 -13.33207,-6.44121 -14.75455,-16.50942c-1.42248,-10.06821 2.87707,-19.00049 9.60331,-19.9508c6.72624,-0.95031 13.33207,6.44121 14.75455,16.50943z" fill="#ffffff" stroke="#000000" stroke-width="6"/><path d="M171.23397,204.585c1.31306,9.29374 -2.17221,17.47059 -7.78457,18.26352c-5.61234,0.79293 -11.2265,-6.09832 -12.53956,-15.39205c-1.31306,-9.29374 2.17221,-17.47059 7.78457,-18.26352c5.61234,-0.79293 11.2265,6.09832 12.53956,15.39205z" fill="#ffffff" stroke="#000000" stroke-width="6"/><path d="M297.06369,147.17515c17.04717,0 30.86663,12.72401 30.86663,28.41988c0,15.69587 -13.81946,28.41989 -30.86663,28.41989c-17.04717,0 -30.86663,-12.72402 -30.86663,-28.41989c0,-15.69587 13.81946,-28.41988 30.86663,-28.41988z" data-paper-data="{&quot;index&quot;:null}" fill="#8c66ff" stroke="#000000" stroke-width="6"/><path d="M407.62067,234.24068c-14.28087,28.13008 -49.32136,39.02221 -78.26512,24.32826c-28.94376,-14.69395 -40.83037,-49.4097 -26.5495,-77.53977c3.64977,-7.18922 3.14278,1.55862 9.39951,6.37403c2.24627,1.72881 12.27518,-4.70576 13.99102,-1.83089c2.87482,4.81672 -7.24477,15.55816 0.80713,19.65737c5.13808,2.61578 18.14041,-12.21541 25.22917,-10.31662c2.80162,0.75044 -0.79916,18.45642 2.13455,19.13462c3.35768,0.7762 16.22196,-11.84635 19.61531,-11.13316c3.53841,0.74368 -4.95437,17.64558 -1.88255,18.84241c4.22693,1.64688 26.68079,-4.87482 30.90784,-3.99439c1.15833,0.24126 -7.46605,10.04132 -6.57613,10.34749c9.70738,3.33975 13.90665,0.77702 11.18876,6.13065z" data-paper-data="{&quot;index&quot;:null}" fill="#8c66ff" stroke="#000000" stroke-width="6"/><path d="M384.37325,180.68976c-1.55471,7.23402 -9.74062,11.60993 -9.74062,11.60993c0,0 -5.66522,-7.35275 -4.11051,-14.58677c1.55471,-7.23402 5.91573,-12.43196 9.74062,-11.60993c3.82488,0.82203 5.66522,7.35275 4.11051,14.58677z" fill="#8c66ff" stroke="#000000" stroke-width="6"/><path d="M408.98526,157.99215c17.04716,0 30.86663,12.72401 30.86663,28.41988c0,15.69588 -13.81946,28.41989 -30.86663,28.41989c-17.04717,0 -30.86664,-12.72402 -30.86664,-28.41989c0,-15.69587 13.81946,-28.41988 30.86664,-28.41988z" data-paper-data="{&quot;index&quot;:null}" fill="#8c66ff" stroke="#000000" stroke-width="6"/><path d="M346.70658,150.02309c-1.55471,7.23402 -9.74062,11.60993 -9.74062,11.60993c0,0 -5.66522,-7.35275 -4.11051,-14.58677c1.55471,-7.23402 5.91574,-12.43196 9.74062,-11.60993c3.82488,0.82203 5.66522,7.35275 4.11051,14.58677z" fill="#8c66ff" stroke="#000000" stroke-width="6"/><path d="M381.91749,146.59874c-6.46002,3.60781 -15.15088,0.34794 -15.15088,0.34794c0,0 1.78291,-9.10927 8.24294,-12.71708c6.46002,-3.60781 13.2433,-3.76358 15.15088,-0.34794c1.90758,3.41564 -1.78291,9.10927 -8.24294,12.71708z" fill="#8c66ff" stroke="#000000" stroke-width="6"/></g></g></svg>