<svg version="1.1" xmlns="http://www.w3.org/2000/svg" xmlns:xlink="http://www.w3.org/1999/xlink" width="545.4311" height="386.41667" viewBox="0,0,545.4311,386.41667"><g transform="translate(57.93109,4.5)"><g data-paper-data="{&quot;isPaintingLayer&quot;:true}" fill-rule="nonzero" stroke-linejoin="miter" stroke-miterlimit="10" stroke-dasharray="" stroke-dashoffset="0" style="mix-blend-mode: normal"><path d="M-6.49999,363.5v-367h493v367z" fill="#aee9ff" stroke="#000000" stroke-width="2" stroke-linecap="butt"/><path d="M-2.3456,381.66667v-183.88889h488.33333v183.88889z" fill="#c1c1c1" stroke="#787878" stroke-width="0.5" stroke-linecap="butt"/><path d="M1.26387,215.62711h475.88424" fill="none" stroke="#787878" stroke-width="2" stroke-linecap="round"/><path d="M239.84346,82.61904c37.57964,0 68.04395,29.60789 68.04395,66.13107c0,36.52318 -30.46431,66.13107 -68.04395,66.13107c-37.57964,0 -68.04395,-29.60789 -68.04395,-66.13107c0,-36.52318 30.46431,-66.13107 68.04395,-66.13107z" data-paper-data="{&quot;index&quot;:null}" fill="#fff266" stroke="#000000" stroke-width="6" stroke-linecap="butt"/><path d="M267.75245,166.57638c15.90358,0 28.79601,11.87044 28.79601,26.51339c0,14.64295 -12.89241,26.51339 -28.79601,26.51339c-15.90358,0 -28.796,-11.87045 -28.796,-26.51339c0,-14.64294 12.89241,-26.51339 28.796,-26.51339z" data-paper-data="{&quot;index&quot;:null}" fill="#fff266" stroke="#000000" stroke-width="6" stroke-linecap="butt"/><path d="M239.70978,192.54208c19.73584,0 35.73493,14.73085 35.73493,32.90227c0,18.17143 -15.99907,32.90228 -35.73493,32.90228c-19.73584,0 -35.73493,-14.73085 -35.73493,-32.90228c0,-18.17143 15.99907,-32.90227 35.73493,-32.90227z" data-paper-data="{&quot;index&quot;:null}" fill="#fff266" stroke="#000000" stroke-width="6" stroke-linecap="butt"/><path d="M304.45518,141.46778l-7.77778,20h-50.55556l-8.33334,-16.66666z" fill="#000000" stroke="#000000" stroke-width="6" stroke-linecap="butt"/><path d="M-28.65962,223.42133l-19.38041,12.66928l-6.67178,-130.94124l20.36987,6.74997l2.57259,50.49005l-16.22103,9.17065l16.98433,5.80992z" fill="#000000" stroke="#000000" stroke-width="6" stroke-linecap="butt"/><path d="M183.08313,153.76919h-7.78996" fill="none" stroke="#000000" stroke-width="6" stroke-linecap="round"/><g stroke-width="6"><path d="M183.08313,149.00866c0,-14.73928 11.94854,-26.68782 26.68783,-26.68782c14.73928,0 26.68783,11.94854 26.68783,26.68782c0,14.73928 -11.94854,26.68783 -26.68783,26.68783c-14.73928,0 -26.68783,-11.94854 -26.68783,-26.68783z" fill="#000000" stroke="#000000" stroke-linecap="butt"/><path d="M189.4305,149.58569c0,-11.23372 9.10673,-20.34045 20.34045,-20.34045c11.23372,0 20.34045,9.10673 20.34045,20.34045c0,11.23372 -9.10673,20.34045 -20.34045,20.34045c-11.23372,0 -20.34045,-9.10673 -20.34045,-20.34045z" fill="none" stroke="#ff0000" stroke-linecap="butt"/><path d="M209.04966,131.8419v34.33353" fill="none" stroke="#ff0000" stroke-linecap="round"/><path d="M226.07216,149.44144h-35.48759" fill="none" stroke="#ff0000" stroke-linecap="round"/></g><path d="M195.56368,128.25262c0,0 0.24274,-1.51776 5.32158,-1.43758c5.07884,0.08018 24.32154,-3.45736 31.45996,11.21279c1.67662,3.44562 1.0258,9.80457 1.0258,9.80457z" fill="#000000" stroke="#000000" stroke-width="6" stroke-linecap="butt"/><path d="M201.06638,160.64456c0,-6.93144 5.61905,-12.55049 12.55049,-12.55049c6.93144,0 12.55049,5.61905 12.55049,12.55049c0,6.93144 -5.61905,12.55049 -12.55049,12.55049c-6.93144,0 -12.55049,-5.61904 -12.55049,-12.55049z" fill="#aee9ff" stroke="#000000" stroke-width="3.5" stroke-linecap="butt"/><path d="M217.41664,211.76112c0,0 0.17611,-1.52102 0,-39.81535c-0.07145,-15.53829 42.85091,-17.27771 42.70052,0c-0.34614,39.76941 0,39.81535 0,39.81535z" fill="#949494" stroke="#000000" stroke-width="3.5" stroke-linecap="butt"/><path d="M226.36067,187.38143c0,-6.93144 5.61905,-12.55049 12.55049,-12.55049c6.93144,0 12.55049,5.61905 12.55049,12.55049c0,6.93144 -5.61905,12.55049 -12.55049,12.55049c-6.93144,0 -12.55049,-5.61904 -12.55049,-12.55049z" fill="#aee9ff" stroke="#000000" stroke-width="3.5" stroke-linecap="butt"/></g></g></svg>