<svg version="1.1" xmlns="http://www.w3.org/2000/svg" xmlns:xlink="http://www.w3.org/1999/xlink" width="597.94562" height="420.36028" viewBox="0,0,597.94562,420.36028"><g transform="translate(110.44561,4.5)"><g data-paper-data="{&quot;isPaintingLayer&quot;:true}" fill-rule="nonzero" stroke-linecap="butt" stroke-linejoin="miter" stroke-miterlimit="10" stroke-dasharray="" stroke-dashoffset="0" style="mix-blend-mode: normal"><path d="M-6.5,363.5v-367h493v367z" fill="#aee9ff" stroke="#000000" stroke-width="2"/><path d="M-2.88151,381.66667v-127.77778h488.33333v127.77778z" fill="#c1c1c1" stroke="none" stroke-width="0"/><path d="M405.67642,197.66977c6.21438,43.98505 -27.47462,85.11341 -75.24639,91.86278c-47.77183,6.7494 -91.53626,-23.43606 -97.75065,-67.42111c-6.21438,-43.98502 27.47462,-85.11338 75.24639,-91.86275c47.77183,-6.7494 91.53626,23.43606 97.75065,67.42108z" fill="#66ebff" stroke="#000000" stroke-width="6"/><path d="M362.38878,227.81235c12.49041,88.40653 -51.12478,170.49257 -142.08853,183.34428c-90.96375,12.85171 -174.82991,-48.39758 -187.32035,-136.80414c-12.49041,-88.40653 51.12478,-170.49257 142.08853,-183.34428c90.96375,-12.85171 174.82991,48.39758 187.32035,136.80414z" fill="#66ebff" stroke="#000000" stroke-width="6"/><path d="M66.28995,280.40964c6.21438,43.98505 -27.47462,85.11341 -75.24639,91.86278c-47.77183,6.7494 -91.53626,-23.43606 -97.75065,-67.42111c-6.21438,-43.98505 27.47462,-85.11341 75.24639,-91.86278c47.77183,-6.7494 91.53626,23.43606 97.75065,67.42111z" fill="#66ebff" stroke="#000000" stroke-width="6"/><path d="M249.33678,238.38745c4.02585,28.49466 -8.14257,53.77443 -27.17892,56.46396c-19.03635,2.68953 -37.73192,-18.22967 -41.75776,-46.72433c-4.02585,-28.49466 8.14257,-53.77446 27.17892,-56.46399c19.03635,-2.68953 37.73192,18.22967 41.75776,46.72436z" fill="#ffffff" stroke="#000000" stroke-width="6"/><path d="M328.15622,224.30287c3.71617,26.30279 -6.14771,49.4446 -22.03159,51.68872c-15.88383,2.24412 -31.77281,-17.25923 -35.48898,-43.56199c-3.71617,-26.30279 6.14771,-49.4446 22.03159,-51.68872c15.88383,-2.24412 31.77281,17.25923 35.48898,43.56199z" fill="#ffffff" stroke="#000000" stroke-width="6"/><path d="M187.94415,208.24053c0,0 -1.51301,-7.26412 15.64852,-11.01031c17.16153,-3.74618 19.40806,-7.64379 34.54653,11.59576c15.13847,19.23955 11.42259,32.53673 11.42259,32.53673z" fill="#000000" stroke="#000000" stroke-width="6"/><path d="M270.81791,228.75018c0,0 -2.60264,-13.29718 8.00048,-32.53673c10.60312,-19.23954 12.17661,-15.34194 24.19669,-11.59575c12.02008,3.74618 10.96035,11.01031 10.96035,11.01031z" data-paper-data="{&quot;index&quot;:null}" fill="#000000" stroke="#000000" stroke-width="6"/></g></g></svg>