<svg version="1.1" xmlns="http://www.w3.org/2000/svg" xmlns:xlink="http://www.w3.org/1999/xlink" width="666.96976" height="455.30437" viewBox="0,0,666.96976,455.30437"><g transform="translate(68.1776,23.57583)"><g data-paper-data="{&quot;isPaintingLayer&quot;:true}" fill-rule="nonzero" stroke-linejoin="miter" stroke-miterlimit="10" stroke-dasharray="" stroke-dashoffset="0" style="mix-blend-mode: normal"><path d="M-6.5,363.5v-367h493v367z" fill="#66b1ff" stroke="#000000" stroke-width="2" stroke-linecap="butt"/><path d="M164.48405,239.72655l10.50263,-132.27017h123.27425l15.37884,132.27017z" fill="#747474" stroke="#000000" stroke-width="3.5" stroke-linecap="butt"/><path d="M-2.88149,381.66667v-153.69865h488.33333v153.69865z" fill="#c1c1c1" stroke="none" stroke-width="0" stroke-linecap="butt"/><path d="M82.41442,243.62872c-39.10409,0 -70.80423,-31.70013 -70.80423,-70.80423c0,-39.10409 31.70013,-70.80423 70.80423,-70.80423c39.10409,0 70.80423,31.70013 70.80423,70.80423c0,39.10409 -31.70013,70.80423 -70.80423,70.80423z" data-paper-data="{&quot;index&quot;:null}" fill="#ff6666" stroke="#000000" stroke-width="6" stroke-linecap="butt"/><path d="M-44.54026,372.60005v-86.42857h637.58242v86.42857z" fill="#393939" stroke="#000000" stroke-width="11.5" stroke-linecap="butt"/><path d="M-32.13332,391.69282v-78.57143h544.28571v78.57143z" fill="#838383" stroke="#000000" stroke-width="11.5" stroke-linecap="butt"/><path d="M39.25589,192.31955l-11.58459,-20.04765l131.11,0.53744l-7.85969,19.96795l-50.55512,-0.20724l-8.26495,-16.7007l-6.73493,16.63921z" fill="#000000" stroke="#000000" stroke-width="6" stroke-linecap="butt"/><path d="M-62.4276,425.97854v-86.42857h637.58242v86.42857z" fill="#393939" stroke="#000000" stroke-width="11.5" stroke-linecap="butt"/><path d="M310.35965,280.21611c0,38.15565 -31.82597,69.08692 -71.0853,69.08692c-39.25933,0 -71.0853,-30.93127 -71.0853,-69.08692c0,-38.15565 31.82597,-69.08692 71.0853,-69.08692c39.25933,0 71.0853,30.93127 71.0853,69.08692z" fill="#66ebff" stroke="#000000" stroke-width="6" stroke-linecap="butt"/><path d="M158.23523,244.10986l-37.03102,-10.6779l-23.99027,-14.62002l18.8412,-54.51196l37.46758,17.80437l14.94725,32.39408l-10.23472,29.61143z" fill="#737373" stroke="#000000" stroke-width="6" stroke-linecap="butt"/><path d="M381.4117,237.03255c-39.1041,0 -70.80423,-31.70013 -70.80423,-70.80423c0,-39.10409 31.70013,-70.80423 70.80423,-70.80423c39.10409,0 70.80423,31.70014 70.80423,70.80423c0,39.1041 -31.70014,70.80423 -70.80423,70.80423z" data-paper-data="{&quot;index&quot;:null}" fill="#d866ff" stroke="#000000" stroke-width="6" stroke-linecap="butt"/><path d="M311.65017,184.35912l-11.58458,-20.04766l131.11,0.53744l-7.85969,19.96795l-50.55512,-0.20723l-8.26495,-16.7007l-6.73493,16.63921z" fill="#000000" stroke="#000000" stroke-width="0" stroke-linecap="butt"/><path d="M151.09212,223.70066c14.96014,5.17074 23.15637,20.73678 18.3068,34.76772c-4.84957,14.03094 -20.90852,21.21356 -35.86866,16.04282c-14.96014,-5.17074 -23.15637,-20.73678 -18.3068,-34.76772c4.84957,-14.03094 20.90852,-21.21356 35.86866,-16.04282z" fill="#66ebff" stroke="#000000" stroke-width="6" stroke-linecap="butt"/><path d="M321.82476,252.48571l-10.23472,-29.61143l13.62333,-28.42233l38.7915,-21.77613l18.8412,54.51196l-23.99027,14.62002l-37.03102,10.6779z" data-paper-data="{&quot;index&quot;:null}" fill="#737373" stroke="#000000" stroke-width="6" stroke-linecap="butt"/><path d="M364.83655,248.11933c4.84957,14.03094 -3.34666,29.59698 -18.3068,34.76772c-14.96014,5.17074 -31.01909,-2.01188 -35.86866,-16.04282c-4.84957,-14.03094 3.34666,-29.59698 18.3068,-34.76772c14.96014,-5.17074 31.01909,2.01188 35.86866,16.04282z" data-paper-data="{&quot;index&quot;:null}" fill="#66ebff" stroke="#000000" stroke-width="6" stroke-linecap="butt"/><path d="M122.36871,191.36889l-3.21543,12.32583" fill="none" stroke="#000000" stroke-width="6" stroke-linecap="round"/><path d="M354.41589,204.23063l4.28725,4.82315" fill="none" stroke="#000000" stroke-width="6" stroke-linecap="round"/><path d="M483.17872,184.76573c0,17.32954 -14.65916,31.3779 -32.74216,31.3779c-18.08299,0 -32.74216,-14.04836 -32.74216,-31.3779c0,-17.32954 14.65916,-31.3779 32.74216,-31.3779c18.08299,0 32.74216,14.04836 32.74216,31.3779z" fill="#000000" stroke="#000000" stroke-width="6" stroke-linecap="butt"/><path d="M316.0573,143.15591c0,0 -4.01374,-33.77422 53.75102,-35.60785c76.46829,-2.42734 75.17121,42.42913 75.17121,42.42913" fill="none" stroke="#000000" stroke-width="6" stroke-linecap="round"/><path d="M128.43679,27.56701c0,16.96135 -6.56062,23.06464 -29.1858,27.43214c-2.24801,0.43395 -12.43418,3.6797 -14.83814,4.02631c-1.95391,0.28172 -2.52875,-5.1786 -4.5784,-4.95057c-11.074,1.23198 -24.92613,7.4207 -38.18338,7.4207c-11.48412,0 -24.25274,5.33376 -35.5499,0.83361c-14.70498,-5.85763 -29.55563,-6.71143 -38.76735,-12.49103c-13.97714,-8.76951 -16.75418,-9.60963 -16.75418,-22.27115c0,-14.44817 28.19964,-14.59758 45.84743,-23.66957c15.84084,-8.14312 19.84922,-25.97328 43.08115,-25.97328c8.23085,0 15.36577,0.29032 21.83187,1.01907c12.44855,1.403 22.41816,4.43102 32.9565,10.14094c7.31261,3.96215 6.21557,13.45654 12.29921,19.23655c7.76873,7.381 21.841,11.40796 21.841,19.24629z" fill="#e8e8e8" stroke="#000000" stroke-width="3" stroke-linecap="butt"/><path d="M42.05925,18.39184c0.2466,1.47959 -1.23299,1.72619 -1.23299,1.72619l-1.32653,0.22109c-0.68708,-0.00561 -1.39742,-0.19417 -2.06125,-0.01683c-0.72099,0.1926 1.0846,1.03141 1.6873,1.47149c0.73843,0.53919 1.34592,1.27038 2.15375,1.69866c2.28855,1.21329 5.32138,1.70526 7.77093,2.61796c3.28122,-1.63311 6.83834,-2.17062 10.37541,-3.09007c0.78616,-0.20436 1.72118,-0.07502 2.37109,-0.56228c1.5582,-1.16823 2.54664,-5.02698 2.99341,-6.80276c0.64803,-2.57574 1.85391,-5.38766 1.47227,-8.10078c-0.10178,-0.72357 -2.03009,-2.76065 -2.05762,-2.79397c-4.62932,-5.60367 -11.8735,-3.90371 -18.53216,-3.9107c-7.00823,0.88377 -13.58894,2.96676 -19.88115,6.20544c-0.40763,0.20981 -4.4272,2.22143 -4.88726,2.66498c-1.3574,1.3087 -2.03707,3.17359 -3.07158,4.74998c-4.36154,6.64619 -7.50776,15.23528 -7.03238,23.30582c0.07235,1.53626 -0.11496,3.55356 0.93982,4.91221c2.41466,3.11031 8.78291,4.32462 12.27132,5.63518c7.24051,2.7202 13.66159,7.46732 21.20385,9.57073c2.30953,0.64409 5.25905,0.46231 7.64283,0.67901c0,0 1.49384,0.1358 1.35804,1.62964c-0.1358,1.49384 -1.62964,1.35804 -1.62964,1.35804c-2.54366,-0.23124 -5.60019,-0.07626 -8.07145,-0.74956c-6.75442,-1.84025 -12.57181,-5.80059 -18.84534,-8.66596c-4.66308,-2.12982 -9.63925,-3.08629 -13.94364,-5.96445c-0.7768,-0.51941 -1.74928,-0.84269 -2.30729,-1.59225c-1.70491,-2.29015 -1.45643,-4.04394 -1.61407,-6.64982c-0.44024,-8.74356 2.7843,-17.89653 7.51971,-25.1144c0.21855,-0.33312 3.344,-5.11698 3.50165,-5.26778c0.84663,-0.80982 4.49353,-2.60276 5.59214,-3.16859c6.66672,-3.43367 13.63954,-5.61153 21.06803,-6.53242c5.74896,-0.00565 14.15831,-1.64915 18.88165,2.46409c1.46003,1.27144 4.45088,4.4603 4.81428,6.54553c0.5691,3.26554 -0.68927,6.43134 -1.48451,9.52924c-0.6241,2.43118 -1.93437,6.81318 -4.0498,8.42436c-0.946,0.7205 -2.26107,0.73777 -3.39805,1.08605c-3.73676,1.14464 -7.41183,1.67707 -11.03362,3.20091c-4.24989,-1.25208 -8.44181,-2.11929 -11.92931,-4.94153c-1.52879,-1.23717 -4.55961,-2.93204 -2.13767,-5.7811c0.86044,-1.01218 2.57141,-0.66882 3.85711,-1.00323l1.32653,-0.22109c0,0 1.47959,-0.2466 1.72619,1.23299z" fill="#000000" stroke="none" stroke-width="0.5" stroke-linecap="butt"/><path d="M462.70509,42.18335c0,7.74691 -2.99649,10.53452 -13.33029,12.52932c-1.02675,0.1982 -5.67917,1.68066 -6.77715,1.83897c-0.89243,0.12867 -1.15498,-2.36527 -2.09113,-2.26112c-5.05793,0.56269 -11.38473,3.38932 -17.43983,3.38932c-5.24524,0 -11.07717,2.43614 -16.23702,0.38074c-6.71634,-2.67541 -13.4992,-3.06537 -17.70655,-5.70514c-6.3839,-4.00538 -7.65228,-4.38909 -7.65228,-10.1721c0,-6.59904 12.87987,-6.66728 20.9403,-10.81081c7.23513,-3.71928 9.06591,-11.86301 19.67683,-11.86301c3.75935,0 7.01814,0.1326 9.97146,0.46545c5.68574,0.6408 10.23924,2.02382 15.05251,4.63176c3.33995,1.80967 2.83889,6.14612 5.61753,8.78608c3.54828,3.37119 9.97563,5.21046 9.97563,8.79053z" fill="#e8e8e8" stroke="#000000" stroke-width="3" stroke-linecap="butt"/><path d="M423.25311,37.99269c0.11263,0.67579 -0.56315,0.78842 -0.56315,0.78842l-0.60588,0.10098c-0.31382,-0.00256 -0.63826,-0.08868 -0.94145,-0.00769c-0.3293,0.08797 0.49538,0.47108 0.77066,0.67209c0.33727,0.24627 0.61473,0.58023 0.9837,0.77584c1.04527,0.55416 2.43048,0.77886 3.54929,1.19572c1.49866,-0.7459 3.12334,-0.99141 4.73885,-1.41135c0.35907,-0.09334 0.78613,-0.03426 1.08297,-0.25682c0.71169,-0.53358 1.16315,-2.29602 1.36721,-3.10708c0.29598,-1.17644 0.84675,-2.46075 0.67244,-3.69994c-0.04649,-0.33048 -0.92722,-1.2609 -0.93979,-1.27611c-2.11439,-2.55941 -5.42309,-1.78298 -8.46436,-1.78617c-3.20093,0.40365 -6.2066,1.35503 -9.08049,2.83427c-0.18618,0.09583 -2.02207,1.01461 -2.2322,1.2172c-0.61998,0.59773 -0.93041,1.4495 -1.40291,2.1695c-1.99208,3.03557 -3.42909,6.95854 -3.21196,10.64467c0.03305,0.70167 -0.05251,1.62305 0.42925,2.2436c1.10287,1.4206 4.0115,1.97522 5.60479,2.57381c3.30702,1.24242 6.23978,3.41061 9.68462,4.37132c1.05485,0.29418 2.40201,0.21115 3.49078,0.31013c0,0 0.68229,0.06203 0.62027,0.74432c-0.06203,0.68229 -0.74432,0.62027 -0.74432,0.62027c-1.16179,-0.10562 -2.55782,-0.03483 -3.68654,-0.34235c-3.08501,-0.84051 -5.74203,-2.64935 -8.6074,-3.95808c-2.12981,-0.97277 -4.40262,-1.40963 -6.3686,-2.7242c-0.35479,-0.23723 -0.79896,-0.38489 -1.05383,-0.72724c-0.7787,-1.046 -0.66521,-1.84702 -0.73721,-3.03723c-0.20107,-3.99352 1.2717,-8.17404 3.43454,-11.47072c0.09982,-0.15215 1.52733,-2.33712 1.59934,-2.406c0.38669,-0.36988 2.05237,-1.18878 2.55415,-1.44722c3.04495,-1.56829 6.22971,-2.563 9.62259,-2.98361c2.62577,-0.00258 6.46665,-0.75323 8.62398,1.12545c0.66685,0.58072 2.03289,2.03719 2.19887,2.9896c0.25993,1.4915 -0.31482,2.93744 -0.67803,4.35237c-0.28505,1.11041 -0.8835,3.11184 -1.8497,3.84773c-0.43207,0.32908 -1.03272,0.33697 -1.55202,0.49604c-1.70672,0.5228 -3.38527,0.76598 -5.03948,1.46198c-1.94109,-0.57187 -3.8557,-0.96796 -5.44858,-2.25699c-0.69826,-0.56506 -2.08255,-1.33918 -0.97636,-2.64045c0.393,-0.4623 1.17446,-0.30548 1.76169,-0.45821l0.60588,-0.10098c0,0 0.67579,-0.11263 0.78842,0.56315z" fill="#000000" stroke="none" stroke-width="0.5" stroke-linecap="butt"/><path d="M187.78906,143.00306v-17.62941h38.25956v17.62941z" fill="#000000" stroke="none" stroke-width="0" stroke-linecap="butt"/><path d="M249.42822,143.87702v-17.6294h38.25957v17.6294z" fill="#000000" stroke="none" stroke-width="0" stroke-linecap="butt"/><path d="M186.53625,173.63321v-17.6294h38.25956v17.6294z" fill="#000000" stroke="none" stroke-width="0" stroke-linecap="butt"/><path d="M249.30069,174.50718v-17.6294h38.25957v17.6294z" fill="#000000" stroke="none" stroke-width="0" stroke-linecap="butt"/><path d="M185.65853,203.51318v-17.6294h38.25956v17.6294z" fill="#000000" stroke="none" stroke-width="0" stroke-linecap="butt"/><path d="M249.17316,202.88678v-17.6294h38.25956v17.6294z" fill="#000000" stroke="none" stroke-width="0" stroke-linecap="butt"/></g></g></svg>