<svg version="1.1" xmlns="http://www.w3.org/2000/svg" xmlns:xlink="http://www.w3.org/1999/xlink" width="68.5711" height="54.13507" viewBox="0,0,68.5711,54.13507"><g transform="translate(-219.92468,-139.59406)"><g data-paper-data="{&quot;isPaintingLayer&quot;:true}" fill-rule="nonzero" stroke-linecap="butt" stroke-linejoin="miter" stroke-miterlimit="10" stroke-dasharray="" stroke-dashoffset="0" style="mix-blend-mode: normal"><path d="M219.92468,193.72914v-54.13507h58.1952v54.13507z" fill="none" stroke="none" stroke-width="0"/><path d="M249.75205,193.59648v-25.7407h38.74373v25.7407z" fill="none" stroke="none" stroke-width="0"/><path d="M257.63456,179.06213c0,2.69285 -2.24913,4.87584 -5.02359,4.87584c-2.77445,0 -5.02359,-2.18298 -5.02359,-4.87584c0,-2.69285 2.24913,-4.87584 5.02359,-4.87584c2.77445,0 5.02359,2.18298 5.02359,4.87584z" fill="#66ddff" stroke="#000000" stroke-width="3.5"/><path d="M252.78858,180.93355v-5.64543l7.32319,-6.14937c0,0 7.0606,-0.35554 8.12612,-0.35554c0.7848,0 0.28641,15.25267 0.11238,15.25267c-1.10765,0 -9.13207,0.35294 -9.13207,0.35294z" fill="#949494" stroke="#000000" stroke-width="3.5"/><path d="M264.94875,176.94675c0,1.63047 -0.71688,2.95223 -1.60121,2.95223c-0.88433,0 -1.60121,-1.32175 -1.60121,-2.95223c0,-1.63047 0.71688,-2.95223 1.60121,-2.95223c0.88433,0 1.60121,1.32175 1.60121,2.95223z" fill="#000000" stroke="#000000" stroke-width="3.5"/></g></g></svg>