<svg version="1.1" xmlns="http://www.w3.org/2000/svg" xmlns:xlink="http://www.w3.org/1999/xlink" width="68.5711" height="54.13507" viewBox="0,0,68.5711,54.13507"><g transform="translate(-219.92468,-139.59404)"><g data-paper-data="{&quot;isPaintingLayer&quot;:true}" fill-rule="nonzero" stroke-linecap="butt" stroke-linejoin="miter" stroke-miterlimit="10" stroke-dasharray="" stroke-dashoffset="0" style="mix-blend-mode: normal"><path d="M265.26188,179.30379c0,3.36352 -2.8093,6.0902 -6.27475,6.0902c-3.46545,0 -6.27475,-2.72667 -6.27475,-6.0902c0,-3.36352 2.8093,-6.0902 6.27475,-6.0902c3.46545,0 6.27475,2.72667 6.27475,6.0902z" fill="#66ddff" stroke="#000000" stroke-width="3.5"/><path d="M219.92468,193.72911v-54.13507h58.1952v54.13507z" fill="none" stroke="none" stroke-width="0"/><path d="M259.58397,181.64129v-7.05146c0,0 13.14947,0 15.92208,0c0.98026,0 1.99026,1.75909 1.99026,2.78636c0,1.27095 -0.85796,4.2651 -1.72489,4.2651c-2.65579,0 -16.18745,0 -16.18745,0z" fill="#949494" stroke="#000000" stroke-width="3.5"/><path d="M249.75205,193.59643v-25.7407h38.74373v25.7407z" fill="none" stroke="none" stroke-width="0"/></g></g></svg>