<svg version="1.1" xmlns="http://www.w3.org/2000/svg" xmlns:xlink="http://www.w3.org/1999/xlink" width="102.33333" height="78.33333" viewBox="0,0,102.33333,78.33333"><g transform="translate(-182.41667,-137.41667)"><g data-paper-data="{&quot;isPaintingLayer&quot;:true}" fill-rule="nonzero" stroke-linejoin="miter" stroke-miterlimit="10" stroke-dasharray="" stroke-dashoffset="0" style="mix-blend-mode: normal"><path d="M233.78946,184.84666c0,-6.68979 5.42315,-12.11294 12.11294,-12.11294c6.68979,0 12.11294,5.42315 12.11294,12.11294c0,6.68979 -5.42315,12.11294 -12.11294,12.11294c-6.68979,0 -12.11294,-5.42315 -12.11294,-12.11294z" fill="#66ddff" stroke="#000000" stroke-width="3.5" stroke-linecap="butt"/><path d="M244.38183,161.44558c0,3.36352 -2.8093,6.0902 -6.27475,6.0902c-3.46545,0 -6.27475,-2.72667 -6.27475,-6.0902c0,-3.36352 2.8093,-6.0902 6.27475,-6.0902c3.46545,0 6.27475,2.72667 6.27475,6.0902z" fill="#66ddff" stroke="#000000" stroke-width="3.5" stroke-linecap="butt"/><path d="M220.6524,207.06754v-54.13507h58.1952v54.13507z" fill="none" stroke="none" stroke-width="0" stroke-linecap="butt"/><path d="M234.0485,198.94558c0,3.36352 -2.8093,6.0902 -6.27475,6.0902c-3.46545,0 -6.27475,-2.72667 -6.27475,-6.0902c0,-3.36352 2.8093,-6.0902 6.27475,-6.0902c3.46545,0 6.27475,2.72667 6.27475,6.0902z" fill="#66ddff" stroke="#000000" stroke-width="3.5" stroke-linecap="butt"/><path d="M237.31907,184.76333l12.33333,-6.5" fill="none" stroke="#000000" stroke-width="3.5" stroke-linecap="round"/><path d="M247.6524,187.59666l-5.83333,-9.83333" fill="none" stroke="#000000" stroke-width="3.5" stroke-linecap="round"/><path d="M201.1524,186.42999c0,0 0,-22.69189 0,-25.83333c0,-1.20469 2.48278,-2.66667 3.66667,-2.66667c1.34984,0 3.97862,1.60142 3.95118,3.51127c-0.04918,3.42269 -0.11784,17.20457 -0.11784,18.15539c0,1.26061 7.33333,1.16667 7.33333,1.16667l0.33333,6z" fill="#949494" stroke="#000000" stroke-width="3.5" stroke-linecap="butt"/><path d="M182.41667,215.75v-78.33333h102.33333v78.33333z" fill="none" stroke="none" stroke-width="none" stroke-linecap="butt"/></g></g></svg>