<svg version="1.1" xmlns="http://www.w3.org/2000/svg" xmlns:xlink="http://www.w3.org/1999/xlink" width="800.28568" height="559.60925" viewBox="0,0,800.28568,559.60925"><g transform="translate(175.71423,121.30249)"><g data-paper-data="{&quot;isPaintingLayer&quot;:true}" fill-rule="nonzero" stroke-linejoin="miter" stroke-miterlimit="10" stroke-dasharray="" stroke-dashoffset="0" style="mix-blend-mode: normal"><path d="M-138.21427,418.57143v-538.87392h761.78572v538.87392z" fill="#66b1ff" stroke="#000000" stroke-width="2" stroke-linecap="butt"/><path d="M-56.07139,321.42857v-155c0,0 4.66873,11.89443 18.95777,24.8017c7.32826,6.61961 16.13408,18.76973 30.32794,18.76973c8.92336,0 38.44159,-31.73738 47.70856,-34.59239c36.6684,-11.29695 59.87193,-10.09249 147.12234,-17.99012c10.81339,-0.97879 29.23308,28.2684 40.82081,27.71068c7.33892,-0.35322 47.66918,-32.25133 55.23664,-32.82259c3.26123,-0.24619 7.25427,5.9173 10.54736,5.63449c7.90522,-0.6789 46.24472,0.75279 58.45587,15.594c10.81448,13.14373 16.3042,4.88595 22.90294,4.65738c12.68401,-0.43936 53.26267,-20.08267 64.56216,-21.6206c78.32466,-10.66045 73.35763,9.85773 73.35763,9.85773v155z" fill="#c7ff73" stroke="none" stroke-width="0" stroke-linecap="butt"/><path d="M-57.49996,356.42857v-86.42857h637.58242v86.42857z" fill="#393939" stroke="#000000" stroke-width="11.5" stroke-linecap="butt"/><path d="M367.19649,262.05563l-3.39398,-20.46528c0,0 14.63284,-19.55036 20.89302,-26.04843c4.8503,-5.0346 13.52945,-9.68206 13.52945,-9.68206l6.24802,37.67472c0,0 -8.04793,8.52967 -13.30415,11.14125c-6.7781,3.36774 -23.97235,7.37979 -23.97235,7.37979z" data-paper-data="{&quot;index&quot;:null}" fill="#737373" stroke="#000000" stroke-width="6" stroke-linecap="butt"/><path d="M390.1215,252.34835l-5.72523,-31.1707" data-paper-data="{&quot;index&quot;:null}" fill="none" stroke="#000000" stroke-width="6" stroke-linecap="round"/><path d="M-54.64282,371.42857v-78.57143h544.28571v78.57143z" fill="#838383" stroke="#000000" stroke-width="11.5" stroke-linecap="butt"/><path d="M-151.78566,405.71429v-86.42857h637.58242v86.42857z" fill="#393939" stroke="#000000" stroke-width="11.5" stroke-linecap="butt"/><path d="M481.78577,58.21429c0,16.96135 -6.56062,23.06464 -29.1858,27.43214c-2.24801,0.43395 -12.43418,3.6797 -14.83814,4.02631c-1.95391,0.28172 -2.52875,-5.1786 -4.5784,-4.95057c-11.074,1.23198 -24.92613,7.4207 -38.18338,7.4207c-11.48412,0 -24.25274,5.33376 -35.5499,0.83361c-14.70498,-5.85763 -29.55563,-6.71143 -38.76735,-12.49103c-13.97714,-8.76951 -16.75418,-9.60963 -16.75418,-22.27115c0,-14.44817 28.19964,-14.59758 45.84743,-23.66957c15.84084,-8.14312 19.84922,-25.97328 43.08115,-25.97328c8.23085,0 15.36577,0.29032 21.83187,1.01907c12.44855,1.403 22.41816,4.43102 32.9565,10.14094c7.31261,3.96215 6.21557,13.45654 12.29921,19.23655c7.76873,7.381 21.841,11.40796 21.841,19.24629z" fill="#e8e8e8" stroke="#000000" stroke-width="3" stroke-linecap="butt"/><path d="M-175.71423,146.42857c0,-1.38071 1.11929,-2.5 2.5,-2.5c1.38071,0 2.5,1.11929 2.5,2.5c0,1.38071 -1.11929,2.5 -2.5,2.5c-1.38071,0 -2.5,-1.11929 -2.5,-2.5z" fill="#000000" stroke="none" stroke-width="0.5" stroke-linecap="butt"/><path d="M373.28357,50.63303c0.08125,1.4978 -1.41654,1.57905 -1.41654,1.57905l-1.29963,0.03913c-2.24639,1.15095 -5.96986,1.70563 -7.87455,3.22916c-3.52487,2.81949 -5.05115,6.23287 -6.51422,10.29538c0.6526,1.57802 0.99312,3.29648 1.83044,4.78475c0.65947,1.17216 2.2286,1.50777 3.37424,2.21231c2.55543,1.57154 5.10923,3.14576 7.66323,4.71963c1.60443,0.98871 2.85381,2.63277 4.64215,3.22739c0.85708,0.28498 1.82081,-0.2032 2.70934,-0.041c0.69915,0.12763 1.25063,0.70784 1.93777,0.88933c6.44529,1.7024 14.37539,0.97871 19.51064,5.9426c0,0 1.06066,1.06066 0,2.12132c-1.06066,1.06066 -2.12132,0 -2.12132,0c-1.77814,-1.86538 -4.11307,-2.15441 -6.53435,-2.96357c-3.87419,-1.29471 -7.80031,-1.2093 -11.70043,-2.22195c-0.6249,-0.16225 -1.11058,-0.72199 -1.74539,-0.83968c-0.98496,-0.18261 -2.05959,0.29036 -3.00494,-0.041c-1.07161,-0.37561 -1.82568,-1.35227 -2.76984,-1.98313c-3.29831,-2.20383 -6.78341,-4.17299 -10.16006,-6.25553c-0.66178,-0.40815 -3.63306,-2.04581 -4.24762,-3.03059c-0.42061,-0.67397 -2.1437,-5.76331 -2.38304,-6.4512c1.49538,-5.04102 3.35356,-9.41714 7.69926,-12.75438c2.33587,-1.79381 6.23789,-2.42725 8.92059,-3.73984l1.90524,-0.13473c0,0 1.4978,-0.08125 1.57905,1.41654z" fill="#e8e8e8" stroke="none" stroke-width="0.5" stroke-linecap="butt"/><path d="M395.40822,49.03912c0.2466,1.47959 -1.23299,1.72619 -1.23299,1.72619l-1.32653,0.22109c-0.68708,-0.00561 -1.39742,-0.19417 -2.06125,-0.01683c-0.72099,0.1926 1.0846,1.03141 1.6873,1.47149c0.73843,0.53919 1.34592,1.27038 2.15375,1.69866c2.28855,1.21329 5.32138,1.70526 7.77093,2.61796c3.28122,-1.63311 6.83834,-2.17062 10.37541,-3.09007c0.78616,-0.20436 1.72118,-0.07502 2.37109,-0.56228c1.5582,-1.16823 2.54664,-5.02698 2.99341,-6.80276c0.64803,-2.57574 1.85391,-5.38766 1.47227,-8.10078c-0.10178,-0.72357 -2.03009,-2.76065 -2.05762,-2.79397c-4.62932,-5.60367 -11.8735,-3.90371 -18.53216,-3.9107c-7.00823,0.88377 -13.58894,2.96676 -19.88115,6.20544c-0.40763,0.20981 -4.4272,2.22143 -4.88726,2.66498c-1.3574,1.3087 -2.03707,3.17359 -3.07158,4.74998c-4.36154,6.64619 -7.50776,15.23528 -7.03238,23.30582c0.07235,1.53626 -0.11496,3.55356 0.93982,4.91221c2.41466,3.11031 8.78291,4.32462 12.27132,5.63518c7.24051,2.7202 13.66159,7.46732 21.20385,9.57073c2.30953,0.64409 5.25905,0.46231 7.64283,0.67901c0,0 1.49384,0.1358 1.35804,1.62964c-0.1358,1.49384 -1.62964,1.35804 -1.62964,1.35804c-2.54366,-0.23124 -5.60019,-0.07626 -8.07145,-0.74956c-6.75442,-1.84025 -12.57181,-5.80059 -18.84534,-8.66596c-4.66308,-2.12982 -9.63925,-3.08629 -13.94364,-5.96445c-0.7768,-0.51941 -1.74928,-0.84269 -2.30729,-1.59225c-1.70491,-2.29015 -1.45643,-4.04394 -1.61407,-6.64982c-0.44024,-8.74356 2.7843,-17.89653 7.51971,-25.1144c0.21855,-0.33312 3.344,-5.11698 3.50165,-5.26778c0.84663,-0.80982 4.49353,-2.60276 5.59214,-3.16859c6.66672,-3.43367 13.63954,-5.61153 21.06803,-6.53242c5.74896,-0.00565 14.15831,-1.64915 18.88165,2.46409c1.46003,1.27144 4.45088,4.4603 4.81428,6.54553c0.5691,3.26554 -0.68927,6.43134 -1.48451,9.52924c-0.6241,2.43118 -1.93437,6.81318 -4.0498,8.42436c-0.946,0.7205 -2.26107,0.73777 -3.39805,1.08605c-3.73676,1.14464 -7.41183,1.67707 -11.03362,3.20091c-4.24989,-1.25208 -8.44181,-2.11929 -11.92931,-4.94153c-1.52879,-1.23717 -4.55961,-2.93204 -2.13767,-5.7811c0.86044,-1.01218 2.57141,-0.66882 3.85711,-1.00323l1.32653,-0.22109c0,0 1.47959,-0.2466 1.72619,1.23299z" fill="#000000" stroke="none" stroke-width="0.5" stroke-linecap="butt"/><path d="M78.4703,259.67584c-5.25621,-2.61158 -13.30415,-11.14125 -13.30415,-11.14125l6.24801,-37.67472c0,0 8.67915,4.64745 13.52945,9.68206c6.26018,6.49807 20.89302,26.04843 20.89302,26.04843l-3.39398,20.46528c0,0 -17.19425,-4.01205 -23.97236,-7.37979z" data-paper-data="{&quot;index&quot;:null}" fill="#737373" stroke="#000000" stroke-width="6" stroke-linecap="butt"/><path d="M79.51764,257.34835l5.72523,-31.1707" data-paper-data="{&quot;index&quot;:null}" fill="none" stroke="#000000" stroke-width="6" stroke-linecap="round"/><g stroke-linecap="butt"><g><path d="M391.41707,70.75013c-1.0879,38.39984 -26.56283,12.77828 -110.45438,10.40157c-0.23357,-0.00662 -15.14369,15.03332 -15.59564,13.74018c-2.682,-7.67383 -37.41946,4.84328 -38.69973,4.81168c-56.73933,-1.40072 -20.21109,39.31712 -41.9101,14.28998c-7.36354,-8.49292 -97.40864,-42.30877 -97.13832,-51.85024c0.14498,-5.11703 31.08625,-23.64622 33.51423,-28.38364c3.08786,-6.02498 38.70198,-14.02732 43.20308,-18.40866c15.41027,-15.00027 11.47784,5.71597 47.55632,12.73372c7.27814,1.41569 65.15405,-15.76654 74.97344,-15.48834c83.89156,2.37671 105.63901,19.75393 104.55111,58.15377z" fill="#ff4700" stroke="#ffea00" stroke-width="3.5"/><text transform="translate(103.45979,78.92678) rotate(0.91288) scale(1.13984,1.49675) skewX(0.00007)" font-size="40" xml:space="preserve" fill="#ff9100" fill-rule="nonzero" stroke="#ff0000" stroke-width="2" stroke-linecap="butt" stroke-linejoin="miter" stroke-miterlimit="10" stroke-dasharray="" stroke-dashoffset="0" font-family="Marker" font-weight="normal" text-anchor="start" style="mix-blend-mode: normal"><tspan x="0" dy="0">Disparatil</tspan></text></g><path d="M334.31989,98.43047l-0.20988,-9.85714l1.82228,0.0693c0,0 39.27657,-48.86531 37.58941,-50.87794c-13.85591,-16.52885 -36.69313,2.77398 -38.18478,3.66995c-1.28589,0.77239 -7.91891,-10.46892 0.63417,-19.87891c0.07491,-0.08242 49.16672,-17.84147 55.74388,3.59142c6.57716,21.43289 -37.67136,64.27336 -37.67136,64.27336c0,0 35.38304,0.1857 35.38304,0.84914c0,4.01814 0,8.16083 0,8.16083z" fill="#ff9100" stroke="#ff0000" stroke-width="4"/></g><g><path d="M310.35965,227.06685c0,38.15565 -31.82597,69.08692 -71.0853,69.08692c-39.25933,0 -71.0853,-30.93127 -71.0853,-69.08692c0,-38.15565 31.82597,-69.08692 71.0853,-69.08692c39.25933,0 71.0853,30.93127 71.0853,69.08692z" fill="#66ebff" stroke="#000000" stroke-width="6" stroke-linecap="butt"/><path d="M228.92877,212.50468c0,12.2981 -4.47353,22.26768 -9.99191,22.26768c-5.51838,0 -9.99191,-9.96958 -9.99191,-22.26768c0,-12.2981 4.47353,-22.26769 9.99191,-22.26769c5.51838,0 9.99191,9.96958 9.99191,22.26769z" fill="#000000" stroke="#000000" stroke-width="6" stroke-linecap="butt"/><g stroke="#000000" stroke-width="6"><path d="M356.09836,239.11298c4.84957,14.03094 -3.34666,29.59698 -18.3068,34.76772c-14.96014,5.17074 -31.01909,-2.01188 -35.86866,-16.04282c-4.84957,-14.03094 3.34666,-29.59698 18.3068,-34.76772c14.96014,-5.17074 31.01909,2.01188 35.86866,16.04282z" fill="#66ebff" stroke-linecap="butt"/><path d="M312.40443,243.47936l-10.23472,-29.61143c0,0 44.12606,-28.28763 63.00394,-37.68976c14.62632,-7.28462 40.79873,-14.00907 40.79873,-14.00907l18.8412,54.51196c0,0 -24.26894,12.34167 -40.11931,16.1204c-20.43972,4.87282 -72.28983,10.6779 -72.28983,10.6779z" fill="#737373" stroke-linecap="butt"/><path d="M372.52628,182.01645l15.23579,44.08066" fill="none" stroke-linecap="round"/><path d="M405.13617,193.53523c2.3445,6.78317 2.43724,12.90687 0.20716,13.67766c-2.23008,0.77079 -5.93851,-4.1032 -8.28301,-10.88637c-2.3445,-6.78317 -2.43724,-12.90687 -0.20716,-13.67766c2.23008,-0.77079 5.93851,4.1032 8.28301,10.88637z" fill="#000000" stroke-linecap="butt"/></g><g data-paper-data="{&quot;index&quot;:null}" stroke="#000000" stroke-width="6"><path d="M159.77033,228.75229c14.96014,5.17074 23.15637,20.73678 18.3068,34.76772c-4.84957,14.03094 -20.90852,21.21355 -35.86866,16.04282c-14.96014,-5.17074 -23.15637,-20.73678 -18.3068,-34.76772c4.84957,-14.03094 20.90852,-21.21356 35.86866,-16.04282z" fill="#66ebff" stroke-linecap="butt"/><path d="M95.30575,238.48359c-15.85037,-3.77873 -40.11931,-16.1204 -40.11931,-16.1204l18.8412,-54.51196c0,0 26.17242,6.72445 40.79873,14.00907c18.87789,9.40213 63.00394,37.68975 63.00394,37.68975l-10.23472,29.61144c0,0 -51.85012,-5.80508 -72.28984,-10.6779z" fill="#737373" stroke-linecap="butt"/><path d="M107.47377,187.69858l-15.23579,44.08066" fill="none" stroke-linecap="round"/><path d="M83.14687,188.33099c2.23008,0.77079 2.13734,6.89449 -0.20716,13.67766c-2.34449,6.78317 -6.05293,11.65716 -8.28301,10.88637c-2.23008,-0.77079 -2.13734,-6.89449 0.20716,-13.67766c2.3445,-6.78317 6.05292,-11.65716 8.28301,-10.88637z" fill="#000000" stroke-linecap="butt"/></g><path d="M262.57813,212.04765c0,12.2981 -4.47353,22.26768 -9.99191,22.26768c-5.51838,0 -9.99191,-9.96958 -9.99191,-22.26768c0,-12.2981 4.47353,-22.26769 9.99191,-22.26769c5.51838,0 9.99191,9.96958 9.99191,22.26769z" fill="#000000" stroke="#000000" stroke-width="6" stroke-linecap="butt"/><path d="M205.37073,200.96218v-21.8281h26.603v21.8281z" fill="#66ebff" stroke="none" stroke-width="0" stroke-linecap="butt"/></g><path d="M8.74457,435.30676c-56.0569,0 -101.5,-45.4431 -101.5,-101.5c0,-56.0569 45.4431,-101.5 101.5,-101.5c56.0569,0 101.5,45.4431 101.5,101.5c0,56.0569 -45.4431,101.5 -101.5,101.5z" data-paper-data="{&quot;index&quot;:null}" fill="#ff6666" stroke="#000000" stroke-width="6" stroke-linecap="butt"/><path d="M62.74458,375.30676l-15.5,-21l69,-29" data-paper-data="{&quot;index&quot;:null}" fill="none" stroke="#000000" stroke-width="6" stroke-linecap="round"/><path d="M374.58837,329.25697c0,-56.0569 45.4431,-101.5 101.5,-101.5c56.0569,0 101.5,45.4431 101.5,101.5c0,56.0569 -45.4431,101.5 -101.5,101.5c-56.0569,0 -101.5,-45.4431 -101.5,-101.5z" fill="#d866ff" stroke="#000000" stroke-width="6" stroke-linecap="butt"/><path d="M368.58837,320.75697l69,29l-15.5,21" fill="none" stroke="#000000" stroke-width="6" stroke-linecap="round"/></g></g></svg>