<svg version="1.1" xmlns="http://www.w3.org/2000/svg" xmlns:xlink="http://www.w3.org/1999/xlink" width="495" height="386.16667" viewBox="0,0,495,386.16667"><g transform="translate(7.5,4.5)"><g data-paper-data="{&quot;isPaintingLayer&quot;:true}" fill-rule="nonzero" stroke-linecap="butt" stroke-linejoin="miter" stroke-miterlimit="10" stroke-dasharray="" stroke-dashoffset="0" style="mix-blend-mode: normal"><path d="M-6.5,363.5v-367h493v367z" fill="#aee9ff" stroke="#000000" stroke-width="2"/><path d="M-2.88151,381.66667v-127.77778h488.33333v127.77778z" fill="#c1c1c1" stroke="none" stroke-width="0"/><path d="M209.597,228.4055c0,15.69588 -13.81947,28.41989 -30.86663,28.41989c-17.04717,0 -30.86663,-12.72402 -30.86663,-28.41989c0,-15.69587 13.81947,-28.41988 30.86663,-28.41988c17.04717,0 30.86663,12.72401 30.86663,28.41988z" fill="#66ebff" stroke="#000000" stroke-width="6"/><path d="M187.96235,198.62973c0,31.5475 -26.31405,57.1218 -58.77408,57.1218c-32.46003,0 -58.77408,-25.5743 -58.77408,-57.1218c0,-31.5475 26.31405,-57.1218 58.77408,-57.1218c32.46003,0 58.77408,25.5743 58.77408,57.1218z" fill="#66ebff" stroke="#000000" stroke-width="6"/><path d="M104.04144,232.84995c0,15.69588 -13.81947,28.41989 -30.86663,28.41989c-17.04717,0 -30.86663,-12.72401 -30.86663,-28.41989c0,-15.69588 13.81947,-28.41989 30.86663,-28.41989c17.04717,0 30.86663,12.72402 30.86663,28.41989z" fill="#66ebff" stroke="#000000" stroke-width="6"/><path d="M139.81009,196.74141c0,10.1682 -3.69876,18.41115 -8.26142,18.41115c-4.56266,0 -8.26142,-8.24295 -8.26142,-18.41115c0,-10.1682 3.69876,-18.41116 8.26142,-18.41116c4.56266,0 8.26142,8.24295 8.26142,18.41116z" fill="#000000" stroke="#000000" stroke-width="6"/><path d="M165.77453,195.32517c0,9.38604 -2.95901,16.99491 -6.60914,16.99491c-3.65012,0 -6.60914,-7.60888 -6.60914,-16.99491c0,-9.38604 2.95901,-16.99491 6.60914,-16.99491c3.65012,0 6.60914,7.60888 6.60914,16.99491z" fill="#000000" stroke="#000000" stroke-width="6"/><path d="M312.06369,202.76339c17.04717,0 30.86663,12.72401 30.86663,28.41988c0,15.69587 -13.81946,28.41989 -30.86663,28.41989c-17.04717,0 -30.86663,-12.72402 -30.86663,-28.41989c0,-15.69587 13.81946,-28.41988 30.86663,-28.41988z" data-paper-data="{&quot;index&quot;:null}" fill="#8c66ff" stroke="#000000" stroke-width="6"/><path d="M361.05023,144.28571c32.46003,0 58.77408,25.57431 58.77408,57.1218c0,31.5475 -26.31405,57.1218 -58.77408,57.1218c-32.46003,0 -58.77408,-25.57431 -58.77408,-57.1218c0,-31.54749 26.31405,-57.1218 58.77408,-57.1218z" data-paper-data="{&quot;index&quot;:null}" fill="#8c66ff" stroke="#000000" stroke-width="6"/><path d="M417.06369,207.20784c17.04716,0 30.86663,12.72401 30.86663,28.41988c0,15.69588 -13.81946,28.41989 -30.86663,28.41989c-17.04717,0 -30.86664,-12.72402 -30.86664,-28.41989c0,-15.69587 13.81946,-28.41988 30.86664,-28.41988z" data-paper-data="{&quot;index&quot;:null}" fill="#8c66ff" stroke="#000000" stroke-width="6"/><path d="M359.24538,181.10803c4.56266,0 8.26142,8.24296 8.26142,18.41116c0,10.1682 -3.69876,18.41116 -8.26142,18.41116c-4.56266,0 -8.26141,-8.24295 -8.26141,-18.41116c0,-10.16821 3.69876,-18.41116 8.26142,-18.41116z" data-paper-data="{&quot;index&quot;:null}" fill="#000000" stroke="#000000" stroke-width="6"/><path d="M331.62865,181.10803c3.65012,0 6.60914,7.60888 6.60914,16.99491c0,9.38603 -2.95902,16.99491 -6.60914,16.99491c-3.65012,0 -6.60913,-7.60888 -6.60913,-16.99491c0,-9.38603 2.95902,-16.99491 6.60913,-16.99491z" data-paper-data="{&quot;index&quot;:null}" fill="#000000" stroke="#000000" stroke-width="6"/></g></g></svg>