<svg version="1.1" xmlns="http://www.w3.org/2000/svg" xmlns:xlink="http://www.w3.org/1999/xlink" width="495" height="386.16667" viewBox="0,0,495,386.16667"><g transform="translate(7.50001,4.5)"><g data-paper-data="{&quot;isPaintingLayer&quot;:true}" fill-rule="nonzero" stroke-linejoin="miter" stroke-miterlimit="10" stroke-dasharray="" stroke-dashoffset="0" style="mix-blend-mode: normal"><path d="M-6.5,363.5v-367h493v367z" fill="#aee9ff" stroke="#000000" stroke-width="2" stroke-linecap="butt"/><path d="M-2.88151,381.66667v-127.77778h488.33333v127.77778z" fill="#c1c1c1" stroke="none" stroke-width="0" stroke-linecap="butt"/><path d="M282.78711,84.16133c6.21438,43.98505 -27.47462,85.11341 -75.24639,91.86278c-47.77183,6.7494 -91.53626,-23.43606 -97.75065,-67.42111c-6.21438,-43.98502 27.47462,-85.11338 75.24639,-91.86275c47.77183,-6.7494 91.53626,23.43606 97.75065,67.42108z" fill="#66ebff" stroke="#000000" stroke-width="6" stroke-linecap="butt"/><path d="M158.55065,299.56924l-2.22394,-62.80722c0,0 101.25588,-28.31593 142.98797,-35.25204c32.33342,-5.37398 86.48171,-2.88699 86.48171,-2.88699l4.09405,115.62241c0,0 -53.79936,9.40507 -86.41968,7.33563c-42.06527,-2.66861 -144.92012,-22.01179 -144.92012,-22.01179z" fill="#737373" stroke="#000000" stroke-width="6" stroke-linecap="butt"/><path d="M309.98449,217.02889l3.31063,93.49712" fill="none" stroke="#000000" stroke-width="6" stroke-linecap="round"/><path d="M365.75604,258.28819c0.50944,14.38741 -2.91209,26.18651 -7.6422,26.354c-4.73012,0.16748 -8.97761,-11.36005 -9.48705,-25.74747c-0.50944,-14.38742 2.91208,-26.1865 7.6422,-26.35399c4.73012,-0.16748 8.9776,11.36004 9.48705,25.74746z" fill="#000000" stroke="#000000" stroke-width="6" stroke-linecap="butt"/><path d="M107.31528,290.7832l-1.01586,-28.68926l39.54796,-16.10252l65.26982,-1.31873l1.87009,52.81432l-65.24149,3.35079l-40.43054,-10.05461z" fill="#737373" stroke="#000000" stroke-width="6" stroke-linecap="butt"/><path d="M147.21428,255.03714l1.35055,38.14166" fill="none" stroke="#000000" stroke-width="6" stroke-linecap="round"/></g></g></svg>