<svg version="1.1" xmlns="http://www.w3.org/2000/svg" xmlns:xlink="http://www.w3.org/1999/xlink" width="42.5" height="42.5" viewBox="0,0,42.5,42.5"><defs><radialGradient cx="240" cy="180" r="21.25" gradientUnits="userSpaceOnUse" id="color-1"><stop offset="0" stop-color="#ffffff"/><stop offset="1" stop-color="#c8c8c8"/></radialGradient></defs><g transform="translate(-218.75,-158.75)"><g data-paper-data="{&quot;isPaintingLayer&quot;:true}" fill-rule="nonzero" stroke-linecap="butt" stroke-linejoin="miter" stroke-miterlimit="10" stroke-dasharray="" stroke-dashoffset="0" style="mix-blend-mode: normal"><path d="M218.75,180c0,-11.73605 9.51395,-21.25 21.25,-21.25c11.73605,0 21.25,9.51395 21.25,21.25c0,11.73605 -9.51395,21.25 -21.25,21.25c-11.73605,0 -21.25,-9.51395 -21.25,-21.25z" fill="url(#color-1)" stroke="none" stroke-width="0"/><path d="M233.67181,190.19231c0,0 0,-15.15879 0,-18.25655c0,-1.05762 2.24007,-2.12806 3.3601,-2.12806c1.12003,0 3.34723,0.85613 3.33479,1.68304c-0.03484,2.31695 -0.1987,13.21341 -0.1987,13.21341l6.16019,0.78402l-0.22401,4.70414z" fill="#757575" stroke="#000000" stroke-width="3.5"/></g></g></svg>