<svg version="1.1" xmlns="http://www.w3.org/2000/svg" xmlns:xlink="http://www.w3.org/1999/xlink" width="963.5" height="582.5" viewBox="0,0,963.5,582.5"><g transform="translate(133.25,90.75)"><g data-paper-data="{&quot;isPaintingLayer&quot;:true}" fill-rule="nonzero" stroke-linecap="butt" stroke-linejoin="miter" stroke-miterlimit="10" stroke-dasharray="" stroke-dashoffset="0" style="mix-blend-mode: normal"><path d="M-131.5,490v-579h960v579z" fill="#7f7f7f" stroke="#000000" stroke-width="3.5"/><path d="M-16.5,418.5v-129h550v129z" fill="#c1c1c1" stroke="none" stroke-width="0"/><path d="M-17.5,15.5v-28h530v28z" fill="#c1c1c1" stroke="none" stroke-width="0"/><path d="M-11.5,386.5v-42.02522c0,0 17.91991,19.4445 33,19.4445c10.12485,0 16.51064,-28.72171 41.94155,-29.55499c7.74773,-0.25387 16.10012,29.66317 24.96119,29.52939c7.68566,-0.11603 91.75401,-29.75524 100.1424,-29.95198c11.51732,-0.27012 -47.81616,24.0269 -36.09231,23.95161c10.88722,-0.06992 100.25361,-16.51847 111.95871,-16.7177c4.37514,-0.07447 -4.27996,23.067 0.03227,23.00806c9.51143,-0.13001 30.93092,-37.97752 40.22262,-38.2609c3.30381,-0.10076 2.58237,37.45259 5.83459,37.39001c8.86404,-0.17059 87.55611,3.33659 96.05004,3.00886c5.77194,-0.22271 -21.77323,-31.2254 -16.61811,-31.53252c12.58072,-0.74951 54.08847,30.9195 64.56702,30.91842c4.29648,-0.00044 39.27041,-36.48669 42.94591,-36.68372c48.38684,-2.59389 14.05412,15.45097 14.05412,15.45097v42.02522z" fill="#b9ff73" stroke="none" stroke-width="0"/><path d="M22,187.5v-13h39v13z" fill="#fdff73" stroke="none" stroke-width="0"/><path d="M432,185v-13h39v13z" fill="#fdff73" stroke="none" stroke-width="0"/><path d="M220.5,186.5v-13h39v13z" fill="#fdff73" stroke="none" stroke-width="0"/><path d="M56.87099,15.22971c-3.18953,1.06778 -6.667,-0.7306 -7.76713,-4.01679c-1.10014,-3.28619 0.59365,-6.81577 3.7832,-7.88356c3.18953,-1.06777 6.667,0.7306 7.76713,4.01679c1.10014,3.28619 -0.59365,6.81578 -3.7832,7.88356z" fill="#66ff72" stroke="#000000" stroke-width="3.5"/><path d="M29.65167,24.04912c-3.18953,1.06778 -6.667,-0.7306 -7.76714,-4.01679c-1.10014,-3.28619 0.59365,-6.81578 3.7832,-7.88356c3.18953,-1.06777 6.667,0.7306 7.76714,4.01679c1.10014,3.28619 -0.59365,6.81577 -3.7832,7.88355z" fill="#66ff72" stroke="#000000" stroke-width="3.5"/><path d="M39.22061,1.58275c6.34374,-2.12372 13.20799,1.29727 15.33172,7.64102c2.12373,6.34375 -1.29727,13.20799 -7.64102,15.33172c-6.34374,2.12373 -13.20799,-1.29728 -15.33171,-7.64102c-2.12373,-6.34374 1.29727,-13.20799 7.64102,-15.33171z" fill="#66ff72" stroke="#000000" stroke-width="3.5"/><path d="M13.9787,-3.82056l51.33479,-17.18561l18.47453,55.1849l-51.33479,17.18561z" fill="none" stroke="none" stroke-width="0"/><path d="M174.91269,26.49378c-3.31734,-0.55547 -5.54263,-3.7765 -4.97033,-7.19436c0.57231,-3.41786 3.72548,-5.7383 7.04282,-5.18282c3.31734,0.55547 5.54263,3.7765 4.97033,7.19437c-0.57231,3.41786 -3.72548,5.7383 -7.04282,5.18282z" fill="#66ff72" stroke="#000000" stroke-width="3.5"/><path d="M146.7403,21.4948c-3.31734,-0.55547 -5.54263,-3.7765 -4.97033,-7.19437c0.57231,-3.41786 3.72549,-5.73829 7.04283,-5.18282c3.31733,0.55547 5.54263,3.7765 4.97033,7.19436c-0.57231,3.41786 -3.72548,5.7383 -7.04283,5.18282z" fill="#66ff72" stroke="#000000" stroke-width="3.5"/><path d="M165.74051,6.15549c6.59794,1.10479 11.05101,7.34909 9.94621,13.94702c-1.10479,6.59794 -7.34909,11.05101 -13.94702,9.94621c-6.59794,-1.10479 -11.05101,-7.34908 -9.94622,-13.94702c1.10479,-6.59793 7.34909,-11.05101 13.94703,-9.94622z" fill="#66ff72" stroke="#000000" stroke-width="3.5"/><path d="M145.99427,-10.47088l53.39175,8.94019l-9.61069,57.39613l-53.39175,-8.94018z" fill="none" stroke="none" stroke-width="0"/><path d="M263.11051,-1.68783l53.96699,-4.26268l4.58238,58.01451l-53.96699,4.26268z" fill="none" stroke="none" stroke-width="0"/><path d="M440.5554,5.00312c2.95384,1.60877 4.00472,5.38005 2.34721,8.4234c-1.65751,3.04335 -5.39575,4.20631 -8.3496,2.59754c-2.95384,-1.60876 -4.00472,-5.38004 -2.3472,-8.42339c1.65751,-3.04335 5.39575,-4.20631 8.34959,-2.59755z" fill="#66ff72" stroke="#000000" stroke-width="3.5"/><path d="M439.71543,23.65391c2.95384,1.60876 4.00472,5.38005 2.3472,8.4234c-1.65751,3.04335 -5.39576,4.20631 -8.3496,2.59754c-2.95384,-1.60876 -4.00472,-5.38005 -2.3472,-8.4234c1.65751,-3.04335 5.39576,-4.20631 8.3496,-2.59754z" fill="#66ff72" stroke="#000000" stroke-width="3.5"/><path d="M447.10123,24.72713l-8.44868,7.8428l-6.7089,-7.22718l8.44868,-7.8428z" fill="#7f7f7f" stroke="#000000" stroke-width="3.5"/><path d="M442.57979,27.22196c-5.87496,-3.19971 -8.04368,-10.55619 -4.84398,-16.43115c3.19971,-5.87496 10.55619,-8.04368 16.43115,-4.84397c5.87496,3.19971 8.04368,10.55619 4.84398,16.43115c-3.19971,5.87496 -10.55619,8.04369 -16.43115,4.84398z" fill="#66ff72" stroke="#000000" stroke-width="3.5"/><path d="M455.8107,49.38709l-47.54131,-25.89266l27.83461,-51.1069l47.54131,25.89266z" fill="none" stroke="none" stroke-width="0"/></g></g></svg>