<svg version="1.1" xmlns="http://www.w3.org/2000/svg" xmlns:xlink="http://www.w3.org/1999/xlink" width="68.5711" height="54.13507" viewBox="0,0,68.5711,54.13507"><g transform="translate(-219.92468,-139.59404)"><g data-paper-data="{&quot;isPaintingLayer&quot;:true}" fill-rule="nonzero" stroke-linecap="butt" stroke-linejoin="miter" stroke-miterlimit="10" stroke-dasharray="" stroke-dashoffset="0" style="mix-blend-mode: normal"><path d="M257.51188,179.6788c0,3.36352 -2.8093,6.0902 -6.27475,6.0902c-3.46545,0 -6.27475,-2.72667 -6.27475,-6.0902c0,-3.36352 2.8093,-6.0902 6.27475,-6.0902c3.46545,0 6.27475,2.72667 6.27475,6.0902z" fill="#66ddff" stroke="#000000" stroke-width="3.5"/><path d="M219.92468,193.72912v-54.13507h58.1952v54.13507z" fill="none" stroke="none" stroke-width="0"/><path d="M251.45897,182.01632v-7.05146l9.14709,-7.68091c0,0 8.81909,-0.44409 10.14999,-0.44409c0.98026,0 0.35774,19.05146 0.14037,19.05146c-1.38351,0 -11.40648,0.44085 -11.40648,0.44085c0,0 -8.03097,-4.31585 -8.03097,-4.31585z" fill="#949494" stroke="#000000" stroke-width="3.5"/><path d="M249.75205,193.59646v-25.7407h38.74373v25.7407z" fill="none" stroke="none" stroke-width="0"/><path d="M266.64773,177.03658c0,2.03655 -0.89543,3.6875 -2,3.6875c-1.10457,0 -2,-1.65095 -2,-3.6875c0,-2.03655 0.89543,-3.6875 2,-3.6875c1.10457,0 2,1.65095 2,3.6875z" fill="#000000" stroke="#000000" stroke-width="3.5"/></g></g></svg>