<svg version="1.1" xmlns="http://www.w3.org/2000/svg" xmlns:xlink="http://www.w3.org/1999/xlink" width="75.66324" height="54.13507" viewBox="0,0,75.66324,54.13507"><g transform="translate(-214.75006,-148.08581)"><g data-paper-data="{&quot;isPaintingLayer&quot;:true}" fill-rule="nonzero" stroke-linecap="butt" stroke-linejoin="miter" stroke-miterlimit="10" stroke-dasharray="" stroke-dashoffset="0" style="mix-blend-mode: normal"><path d="M265.26189,179.3038c0,3.36352 -2.8093,6.0902 -6.27475,6.0902c-3.46545,0 -6.27475,-2.72667 -6.27475,-6.0902c0,-3.36352 2.8093,-6.0902 6.27475,-6.0902c3.46545,0 6.27475,2.72667 6.27475,6.0902z" fill="#fff266" stroke="#000000" stroke-width="3.5"/><path d="M238.17096,181.6413v-7.05146c0,0 28.86881,0 34.9559,0c2.1521,0 4.36949,1.75909 4.36949,2.78636c0,1.27095 -1.8836,4.2651 -3.78688,4.2651c-5.83062,0 -35.5385,0 -35.5385,0z" fill="#949494" stroke="#000000" stroke-width="3.5"/><path d="M254.79363,185.58893c0,3.36352 -2.8093,6.0902 -6.27475,6.0902c-3.46545,0 -6.27475,-2.72667 -6.27475,-6.0902c0,-3.36352 2.8093,-6.0902 6.27475,-6.0902c3.46545,0 6.27475,2.72667 6.27475,6.0902z" fill="#fff266" stroke="#000000" stroke-width="3.5"/><path d="M260.43112,181.5326c0,0 -8.68701,0 -10.39196,0c-0.55655,0 -1.10734,-2.99415 -1.10734,-4.2651c0,-1.02727 0.6484,-2.78636 1.2777,-2.78636c1.77995,0 10.2216,0 10.2216,0v7.05146z" data-paper-data="{&quot;index&quot;:null}" fill="#949494" stroke="#000000" stroke-width="3.5"/><path d="M227.88713,180c0,-6.68979 5.42315,-12.11294 12.11294,-12.11294c6.68979,0 12.11294,5.42315 12.11294,12.11294c0,6.68979 -5.42315,12.11294 -12.11294,12.11294c-6.68979,0 -12.11294,-5.42315 -12.11294,-12.11294z" fill="#fff266" stroke="#000000" stroke-width="3.5"/><path d="M214.75007,202.22088v-54.13507h75.66324v54.13507z" fill="none" stroke="none" stroke-width="0"/></g></g></svg>