<svg version="1.1" xmlns="http://www.w3.org/2000/svg" xmlns:xlink="http://www.w3.org/1999/xlink" width="495" height="386.16667" viewBox="0,0,495,386.16667"><g transform="translate(7.5,4.5)"><g data-paper-data="{&quot;isPaintingLayer&quot;:true}" fill-rule="nonzero" stroke-linejoin="miter" stroke-miterlimit="10" stroke-dasharray="" stroke-dashoffset="0" style="mix-blend-mode: normal"><path d="M-6.49999,363.5v-367h493v367z" fill="#aee9ff" stroke="#000000" stroke-width="2" stroke-linecap="butt"/><path d="M-2.8815,381.66667v-127.77778h488.33333v127.77778z" fill="#c1c1c1" stroke="none" stroke-width="0" stroke-linecap="butt"/><path d="M310.35965,226.62554c0,38.15565 -31.82597,69.08692 -71.0853,69.08692c-39.25933,0 -71.0853,-30.93127 -71.0853,-69.08692c0,-38.15565 31.82597,-69.08692 71.0853,-69.08692c39.25933,0 71.0853,30.93127 71.0853,69.08692z" fill="#66ebff" stroke="#000000" stroke-width="6" stroke-linecap="butt"/><path d="M261.619,223.31739c0,12.2981 -4.47353,22.26768 -9.99191,22.26768c-5.51838,0 -9.99191,-9.96958 -9.99191,-22.26768c0,-12.2981 4.47353,-22.26769 9.99191,-22.26769c5.51838,0 9.99191,9.96958 9.99191,22.26769z" fill="#000000" stroke="#000000" stroke-width="6" stroke-linecap="butt"/><path d="M295.26838,222.86036c0,12.2981 -4.47353,22.26768 -9.99191,22.26768c-5.51838,0 -9.99191,-9.96958 -9.99191,-22.26768c0,-12.2981 4.47353,-22.26769 9.99191,-22.26769c5.51838,0 9.99191,9.96958 9.99191,22.26769z" fill="#000000" stroke="#000000" stroke-width="6" stroke-linecap="butt"/><path d="M240.53599,208.84185l7.29974,-20.57133l25.07132,8.89656l-7.29974,20.57133z" fill="#66ebff" stroke="none" stroke-width="0" stroke-linecap="butt"/><g stroke="#000000" stroke-width="6"><path d="M364.52662,234.92033c4.84957,14.03094 -3.34666,29.59698 -18.3068,34.76772c-14.96014,5.17074 -31.01909,-2.01188 -35.86866,-16.04282c-4.84957,-14.03094 3.34666,-29.59698 18.3068,-34.76772c14.96014,-5.17074 31.01909,2.01188 35.86866,16.04282z" fill="#66ebff" stroke-linecap="butt"/><path d="M320.97893,239.28671l-10.23472,-29.61143c0,0 44.12606,-28.28763 63.00394,-37.68976c14.62632,-7.28462 40.79873,-14.00907 40.79873,-14.00907l18.8412,54.51196c0,0 -24.26894,12.34167 -40.11931,16.1204c-20.43972,4.87282 -72.28983,10.6779 -72.28983,10.6779z" fill="#737373" stroke-linecap="butt"/><path d="M381.10077,177.8238l15.23579,44.08066" fill="none" stroke-linecap="round"/><path d="M413.71065,189.34258c2.3445,6.78317 2.43724,12.90687 0.20716,13.67766c-2.23008,0.77079 -5.93851,-4.1032 -8.28301,-10.88637c-2.3445,-6.78317 -2.43724,-12.90687 -0.20716,-13.67766c2.23008,-0.77079 5.93851,4.1032 8.28301,10.88637z" fill="#000000" stroke-linecap="butt"/></g><path d="M164.54193,267.27765l10.14441,-29.64249c0,0 52.19088,4.83854 72.85838,9.0372c16.01288,3.25308 40.78471,14.04982 40.78471,14.04982l-18.67493,54.56914c0,0 -26.72618,-5.19702 -41.5477,-11.96723c-19.11296,-8.73048 -63.56486,-36.04644 -63.56486,-36.04644z" fill="#737373" stroke="#000000" stroke-width="6" stroke-linecap="butt"/><path d="M249.75076,255.79814l-15.10133,44.12691" fill="none" stroke="#000000" stroke-width="6" stroke-linecap="round"/><path d="M203.55767,303.39617c-4.80678,14.04566 -17.38155,14.64131 -32.35739,9.51621c-14.97583,-5.12511 -23.21948,-20.66609 -18.4127,-34.71175c4.80678,-14.04566 13.40756,-8.9952 29.47222,0.29338c26.3222,15.21948 26.10466,10.85651 21.29788,24.90216z" fill="#66ebff" stroke="#000000" stroke-width="6" stroke-linecap="butt"/><path d="M268.37682,284.93843c-2.3238,6.79029 -6.01736,11.67556 -8.24978,10.91157c-2.23242,-0.76399 -2.15834,-6.88793 0.16546,-13.67822c2.3238,-6.79029 6.01737,-11.67556 8.24979,-10.91157c2.23242,0.76399 2.15834,6.88793 -0.16546,13.67822z" fill="#000000" stroke="#000000" stroke-width="6" stroke-linecap="butt"/></g></g></svg>