<svg version="1.1" xmlns="http://www.w3.org/2000/svg" xmlns:xlink="http://www.w3.org/1999/xlink" width="77.62789" height="54.13507" viewBox="0,0,77.62789,54.13507"><g transform="translate(-219.92468,-139.59404)"><g data-paper-data="{&quot;isPaintingLayer&quot;:true}" fill-rule="nonzero" stroke-linecap="butt" stroke-linejoin="miter" stroke-miterlimit="10" stroke-dasharray="" stroke-dashoffset="0" style="mix-blend-mode: normal"><path d="M288.24466,184.82612l-0.39805,-9.28788l0.92879,-0.13268c0,0 8.62446,-1.24012 8.62446,0.13268c0,0.67661 -6.6342,0.57892 -6.6342,1.85758c0,1.26518 5.53988,2.55686 6.41222,4.10555c0.33988,0.60341 -5.66774,-0.11329 -5.52214,0.48304c0.25074,1.02697 4.9202,1.78875 5.86664,2.85075c0.51795,0.5812 -5.79896,-0.81882 -5.79067,-0.28113c0.01842,1.19455 5.66814,4.11992 5.66814,4.11992z" fill="#fff766" stroke="none" stroke-width="0"/><path d="M219.92468,193.72912v-54.13507h58.1952v54.13507z" fill="none" stroke="none" stroke-width="0"/><path d="M249.75205,193.59645v-25.7407h38.74373v25.7407z" fill="none" stroke="none" stroke-width="0"/><path d="M253.54598,183.64131v-7.05146c0,0 28.86881,0 34.9559,0c2.1521,0 4.36949,1.75909 4.36949,2.78636c0,1.27095 -1.8836,4.2651 -3.78688,4.2651c-5.83062,0 -35.5385,0 -35.5385,0z" fill="#949494" stroke="#000000" stroke-width="3.5"/><path d="M265.26188,179.3038c0,3.36352 -2.8093,6.0902 -6.27475,6.0902c-3.46545,0 -6.27475,-2.72667 -6.27475,-6.0902c0,-3.36352 2.8093,-6.0902 6.27475,-6.0902c3.46545,0 6.27475,2.72667 6.27475,6.0902z" fill="#66ddff" stroke="#000000" stroke-width="3.5"/><path d="M275.80615,183.53261c0,0 -8.68701,0 -10.39196,0c-0.55655,0 -1.10734,-2.99415 -1.10734,-4.2651c0,-1.02727 0.6484,-2.78636 1.2777,-2.78636c1.77995,0 10.2216,0 10.2216,0z" data-paper-data="{&quot;index&quot;:null}" fill="#949494" stroke="#000000" stroke-width="3.5"/></g></g></svg>