<svg version="1.1" xmlns="http://www.w3.org/2000/svg" xmlns:xlink="http://www.w3.org/1999/xlink" width="68.5711" height="54.13507" viewBox="0,0,68.5711,54.13507"><g transform="translate(-219.92468,-139.59404)"><g data-paper-data="{&quot;isPaintingLayer&quot;:true}" fill-rule="nonzero" stroke-linecap="butt" stroke-linejoin="miter" stroke-miterlimit="10" stroke-dasharray="" stroke-dashoffset="0" style="mix-blend-mode: normal"><path d="M264.51188,179.42879c0,3.36352 -2.8093,6.0902 -6.27475,6.0902c-3.46545,0 -6.27475,-2.72667 -6.27475,-6.0902c0,-3.36352 2.8093,-6.0902 6.27475,-6.0902c3.46545,0 6.27475,2.72667 6.27475,6.0902z" fill="#66ddff" stroke="#000000" stroke-width="3.5"/><path d="M219.92468,193.72911v-54.13507h58.1952v54.13507z" fill="none" stroke="none" stroke-width="0"/><path d="M275.81752,182.80853l-0.39805,-9.28788l0.92879,-0.13268c0,0 8.62446,-1.24012 8.62446,0.13268c0,0.67661 -6.6342,0.57892 -6.6342,1.85758c0,1.26518 5.53988,2.55686 6.41222,4.10555c0.33988,0.60341 -5.66774,-0.11329 -5.52214,0.48304c0.25074,1.02697 4.9202,1.78875 5.86664,2.85075c0.51795,0.5812 -5.79896,-0.81882 -5.79067,-0.28113c0.01842,1.19455 5.66814,4.11992 5.66814,4.11992z" fill="#fff766" stroke="none" stroke-width="0"/><path d="M258.83397,181.7663v-7.05146c0,0 13.14947,0 15.92208,0c0.98026,0 1.99026,1.75909 1.99026,2.78636c0,1.27095 -0.85796,4.2651 -1.72489,4.2651c-2.65579,0 -16.18745,0 -16.18745,0z" fill="#949494" stroke="#000000" stroke-width="3.5"/><path d="M249.75205,193.59644v-25.7407h38.74373v25.7407z" fill="none" stroke="none" stroke-width="0"/></g></g></svg>