<svg version="1.1" xmlns="http://www.w3.org/2000/svg" xmlns:xlink="http://www.w3.org/1999/xlink" width="38.95033" height="42.2284" viewBox="0,0,38.95033,42.2284"><g transform="translate(-214.875,-158.8858)"><g data-paper-data="{&quot;isPaintingLayer&quot;:true}" fill-rule="nonzero" stroke-linecap="butt" stroke-linejoin="miter" stroke-miterlimit="10" stroke-dasharray="" stroke-dashoffset="0" style="mix-blend-mode: normal"><path d="M245.43458,166.21301c0.26485,3.35307 -2.32102,6.29249 -5.77571,6.56537c-3.45469,0.27287 -6.46997,-2.22412 -6.73482,-5.5772c-0.26485,-3.35307 2.32103,-6.2925 5.77572,-6.56538c3.45469,-0.27287 6.46997,2.22413 6.73482,5.57721z" fill="#66ff72" stroke="#000000" stroke-width="3.5"/><path d="M246.86888,192.79882c0.26485,3.35307 -2.32102,6.2925 -5.77571,6.56538c-3.45469,0.27287 -6.46997,-2.22412 -6.73482,-5.5772c-0.26485,-3.35307 2.32102,-6.2925 5.77571,-6.56538c3.45469,-0.27287 6.46997,2.22412 6.73482,5.5772z" fill="#66ff72" stroke="#000000" stroke-width="3.5"/><path d="M227.92467,180.03972c-0.52676,-6.66902 4.45252,-12.50235 11.12154,-13.02912c6.66902,-0.52677 12.50236,4.45252 13.02912,11.12154c0.52676,6.66902 -4.45252,12.50235 -11.12154,13.02912c-6.66902,0.52677 -12.50236,-4.45252 -13.02912,-11.12154z" fill="#66ff72" stroke="#000000" stroke-width="3.5"/><text transform="translate(236.625,184.47) rotate(-90) scale(0.5,0.5)" font-size="40" xml:space="preserve" fill="#000000" fill-rule="nonzero" stroke="none" stroke-width="1" stroke-linecap="butt" stroke-linejoin="miter" stroke-miterlimit="10" stroke-dasharray="" stroke-dashoffset="0" font-family="Sans Serif" font-weight="normal" text-anchor="start" style="mix-blend-mode: normal"><tspan x="0" dy="0">?</tspan></text></g></g></svg>